<?xml version="1.0" encoding="utf-8"?>
<!-- Generator: Adobe Illustrator 22.1.0, SVG Export Plug-In . SVG Version: 6.00 Build 0)  -->
<svg version="1.1" xmlns="http://www.w3.org/2000/svg" xmlns:xlink="http://www.w3.org/1999/xlink" x="0px" y="0px"
	 viewBox="0 0 1920 1080" style="enable-background:new 0 0 1920 1080;" xml:space="preserve">
<style type="text/css">
	.st0{fill:url(#SVGID_1_);}
	.st1{fill:none;stroke:#000000;stroke-width:4;stroke-miterlimit:10;}
	.st2{fill:#C3C3C4;}
	.st3{fill:#E2E2E2;}
	.st4{fill:url(#SVGID_2_);}
	.st5{fill:url(#SVGID_3_);}
	.st6{fill:url(#SVGID_4_);}
	.st7{fill:url(#SVGID_5_);}
	.st8{fill:url(#SVGID_6_);}
	.st9{fill:url(#SVGID_7_);}
	.st10{fill:url(#SVGID_8_);}
	.st11{fill:url(#SVGID_9_);}
	.st12{fill:url(#SVGID_10_);}
	.st13{fill:url(#SVGID_11_);}
	.st14{fill:#AAB0C4;}
	.st15{fill:#BFA9A9;}
	.st16{fill:url(#SVGID_12_);}
	.st17{fill:#C0BEA9;}
	.st18{fill:url(#SVGID_13_);}
	.st19{fill:#A7B9A5;}
	.st20{fill:url(#SVGID_14_);}
	.st21{fill:url(#SVGID_15_);}
	.st22{fill:none;stroke:#FFFFFF;stroke-width:4;stroke-miterlimit:10;}
	.st23{fill:#1C1C1C;}
	.st24{display:none;}
	.st25{display:inline;opacity:0.13;}
</style>
<g id="Слой_2">
	<linearGradient id="SVGID_1_" gradientUnits="userSpaceOnUse" x1="947.9814" y1="237.662" x2="947.9814" y2="1633.554">
		<stop  offset="0" style="stop-color:#979695"/>
		<stop  offset="1" style="stop-color:#46433E"/>
	</linearGradient>
	<polygon class="st0" points="2397,1398.8 -501,1396.7 -11.8,400.5 1917.1,398.7 	"/>
	<polygon class="st1" points="411.2,558.9 411.2,558.9 411.2,558.7 	"/>
	<line class="st1" x1="411.2" y1="558.9" x2="409.5" y2="558.9"/>
	<path class="st1" d="M607.6,558.9"/>
	<path class="st1" d="M609.4,558.9"/>
	<path class="st1" d="M353.9,613.6"/>
	<g>
		<polygon class="st2" points="1451.6,1032.8 225,1032.8 496.3,442.9 1179.2,441.7 		"/>
		<polygon class="st3" points="1438.2,1023.6 238.3,1023.6 503.8,449.3 1171.8,448.1 		"/>
		<g>
			<g>
				<linearGradient id="SVGID_2_" gradientUnits="userSpaceOnUse" x1="751.1778" y1="466.6942" x2="751.1778" y2="550.2011">
					<stop  offset="0" style="stop-color:#CECDCE"/>
					<stop  offset="1" style="stop-color:#46433E"/>
				</linearGradient>
				<polygon class="st4" points="817.5,473.9 816.8,519.6 684.8,519.6 688.9,473.9 				"/>
				<linearGradient id="SVGID_3_" gradientUnits="userSpaceOnUse" x1="681.7839" y1="536.8881" x2="816.7989" y2="536.8881">
					<stop  offset="0" style="stop-color:#CECDCE"/>
					<stop  offset="1" style="stop-color:#46433E"/>
				</linearGradient>
				<polygon class="st5" points="816.8,519.6 816.3,554.2 681.8,553.9 684.8,519.6 				"/>
			</g>
			<g>
				
					<linearGradient id="SVGID_4_" gradientUnits="userSpaceOnUse" x1="1083.2893" y1="466.6942" x2="1083.2893" y2="550.2011" gradientTransform="matrix(-1 0 0 1 2008.6267 0)">
					<stop  offset="0" style="stop-color:#CECDCE"/>
					<stop  offset="1" style="stop-color:#46433E"/>
				</linearGradient>
				<polygon class="st6" points="859,473.9 859.7,519.6 991.7,519.6 987.6,473.9 				"/>
				
					<linearGradient id="SVGID_5_" gradientUnits="userSpaceOnUse" x1="1013.8954" y1="536.8881" x2="1148.9104" y2="536.8881" gradientTransform="matrix(-1 0 0 1 2008.6267 0)">
					<stop  offset="0" style="stop-color:#CECDCE"/>
					<stop  offset="1" style="stop-color:#46433E"/>
				</linearGradient>
				<polygon class="st7" points="859.7,519.6 860.3,554.2 994.7,553.9 991.7,519.6 				"/>
			</g>
			<g>
				<linearGradient id="SVGID_6_" gradientUnits="userSpaceOnUse" x1="510.6313" y1="475.7214" x2="510.6313" y2="624.2256">
					<stop  offset="0" style="stop-color:#BFBEBE"/>
					<stop  offset="1" style="stop-color:#46433E"/>
				</linearGradient>
				<polygon class="st8" points="531.1,554.5 490.2,554.5 526.1,473.9 526.1,520.2 526.1,520.2 				"/>
				<linearGradient id="SVGID_7_" gradientUnits="userSpaceOnUse" x1="590.4001" y1="456.422" x2="590.4001" y2="583.4384">
					<stop  offset="0" style="stop-color:#CECDCE"/>
					<stop  offset="1" style="stop-color:#46433E"/>
				</linearGradient>
				<polygon class="st9" points="654.7,473.9 649.2,520.2 526.1,520.2 526.1,520.1 526.1,473.9 				"/>
				<linearGradient id="SVGID_8_" gradientUnits="userSpaceOnUse" x1="526.1378" y1="537.355" x2="649.2462" y2="537.355">
					<stop  offset="0" style="stop-color:#CECDCE"/>
					<stop  offset="1" style="stop-color:#46433E"/>
				</linearGradient>
				<polygon class="st10" points="649.2,520.2 645.2,554.5 531.1,554.5 526.1,520.2 				"/>
			</g>
			<g>
				
					<linearGradient id="SVGID_9_" gradientUnits="userSpaceOnUse" x1="1196.5728" y1="475.7214" x2="1196.5728" y2="624.2256" gradientTransform="matrix(-1 0 0 1 2362.4565 0)">
					<stop  offset="0" style="stop-color:#BFBEBE"/>
					<stop  offset="1" style="stop-color:#46433E"/>
				</linearGradient>
				<polygon class="st11" points="1145.4,554.5 1186.3,554.5 1150.4,473.9 1150.4,520.2 1150.4,520.2 				"/>
				
					<linearGradient id="SVGID_10_" gradientUnits="userSpaceOnUse" x1="1276.3417" y1="456.422" x2="1276.3417" y2="583.4384" gradientTransform="matrix(-1 0 0 1 2362.4565 0)">
					<stop  offset="0" style="stop-color:#CECDCE"/>
					<stop  offset="1" style="stop-color:#46433E"/>
				</linearGradient>
				<polygon class="st12" points="1021.8,473.9 1027.3,520.2 1150.4,520.2 1150.4,520.1 1150.4,473.9 				"/>
				
					<linearGradient id="SVGID_11_" gradientUnits="userSpaceOnUse" x1="1212.0792" y1="537.355" x2="1335.1877" y2="537.355" gradientTransform="matrix(-1 0 0 1 2362.4565 0)">
					<stop  offset="0" style="stop-color:#CECDCE"/>
					<stop  offset="1" style="stop-color:#46433E"/>
				</linearGradient>
				<polygon class="st13" points="1027.3,520.2 1031.3,554.5 1145.4,554.5 1150.4,520.2 				"/>
			</g>
		</g>
	</g>
	<g>
		<polygon class="st14" points="519.8,-123.2 519.8,109.5 1.3,109.5 1.3,-121.8 42.9,-121.9 61.3,-121.9 204.3,-122.3 222.7,-122.4 
			258.1,-122.5 276.5,-122.5 419.5,-122.9 437.9,-123 490.7,-123.1 516.8,-123.2 		"/>
		<polygon class="st15" points="1073.6,-124.7 1073.6,109.5 516.8,109.5 516.8,-123.2 519.8,-123.2 536.9,-123.2 588.9,-123.4 
			607.4,-123.4 750.3,-123.8 768.8,-123.9 804.1,-124 822.6,-124 965.5,-124.4 984,-124.4 1047.5,-124.6 1070.6,-124.7 		"/>
		<linearGradient id="SVGID_12_" gradientUnits="userSpaceOnUse" x1="513.7751" y1="-182.487" x2="513.7751" y2="120.2445">
			<stop  offset="0" style="stop-color:#504C47"/>
			<stop  offset="1" style="stop-color:#090808"/>
		</linearGradient>
		<polygon class="st16" points="536.9,-123.2 536.9,103.4 490.7,103.4 490.7,-123.1 516.8,-123.2 519.8,-123.2 		"/>
		<polygon class="st17" points="1627.4,-126.2 1627.4,109.5 1070.6,109.5 1070.6,-124.7 1073.6,-124.7 1093.7,-124.7 1144.2,-124.9 
			1162.7,-124.9 1305.6,-125.3 1324.1,-125.4 1359.4,-125.5 1377.9,-125.5 1520.8,-125.9 1539.3,-126 1602.3,-126.1 1624.4,-126.2 
					"/>
		<linearGradient id="SVGID_13_" gradientUnits="userSpaceOnUse" x1="1070.5753" y1="-184.3948" x2="1070.5753" y2="120.3571">
			<stop  offset="0" style="stop-color:#504C47"/>
			<stop  offset="1" style="stop-color:#090808"/>
		</linearGradient>
		<polygon class="st18" points="1093.7,-124.7 1093.7,103.4 1047.5,103.4 1047.5,-124.6 1070.6,-124.7 1073.6,-124.7 		"/>
		<polygon class="st19" points="1924.3,-127 1924.3,109.5 1624.4,109.5 1624.4,-126.2 1627.4,-126.2 1648.5,-126.2 1683.7,-126.3 
			1702.1,-126.4 1845.1,-126.8 1863.5,-126.8 1898.9,-126.9 1917.3,-127 		"/>
		<linearGradient id="SVGID_14_" gradientUnits="userSpaceOnUse" x1="1625.3739" y1="-186.2861" x2="1625.3739" y2="120.4687">
			<stop  offset="0" style="stop-color:#504C47"/>
			<stop  offset="1" style="stop-color:#090808"/>
		</linearGradient>
		<polygon class="st20" points="1648.5,-126.2 1648.5,103.4 1602.3,103.4 1602.3,-126.1 1624.4,-126.2 1627.4,-126.2 		"/>
		<linearGradient id="SVGID_15_" gradientUnits="userSpaceOnUse" x1="962.8194" y1="42.473" x2="962.8194" y2="460.2204">
			<stop  offset="0" style="stop-color:#504C47"/>
			<stop  offset="1" style="stop-color:#090808"/>
		</linearGradient>
		<rect x="1.3" y="101.6" class="st21" width="1923" height="310.6"/>
		<line class="st22" x1="4.3" y1="268" x2="1.3" y2="268"/>
		<line class="st22" x1="76.6" y1="268" x2="175.9" y2="268"/>
		<line class="st22" x1="248.1" y1="268" x2="347.4" y2="268"/>
		<line class="st22" x1="419.7" y1="268" x2="519" y2="268"/>
		<line class="st22" x1="591.2" y1="268" x2="690.5" y2="268"/>
		<line class="st22" x1="762.8" y1="268" x2="862.1" y2="268"/>
		<line class="st22" x1="934.3" y1="268" x2="1033.6" y2="268"/>
		<line class="st22" x1="1105.9" y1="268" x2="1205.2" y2="268"/>
		<line class="st22" x1="1277.4" y1="268" x2="1376.8" y2="268"/>
		<line class="st22" x1="1449" y1="268" x2="1548.3" y2="268"/>
		<line class="st22" x1="1620.5" y1="268" x2="1719.9" y2="268"/>
		<line class="st22" x1="1792.1" y1="268" x2="1891.4" y2="268"/>
		<polygon class="st23" points="222.7,-122.4 222.7,-95.2 42.9,-95.2 42.9,-121.9 61.3,-121.9 61.3,-110.5 204.3,-110.5 
			204.3,-122.3 		"/>
		<polygon class="st23" points="437.9,-123 437.9,-95.2 258.1,-95.2 258.1,-122.5 276.5,-122.5 276.5,-110.5 419.5,-110.5 
			419.5,-122.9 		"/>
		<polygon class="st23" points="768.8,-123.9 768.8,-95.2 588.9,-95.2 588.9,-123.4 607.4,-123.4 607.4,-110.5 750.3,-110.5 
			750.3,-123.8 		"/>
		<polygon class="st23" points="984,-124.4 984,-95.2 804.1,-95.2 804.1,-124 822.6,-124 822.6,-110.5 965.5,-110.5 965.5,-124.4 		
			"/>
		<polygon class="st23" points="1324.1,-125.4 1324.1,-95.2 1144.2,-95.2 1144.2,-124.9 1162.7,-124.9 1162.7,-110.5 1305.6,-110.5 
			1305.6,-125.3 		"/>
		<polygon class="st23" points="1539.3,-126 1539.3,-95.2 1359.4,-95.2 1359.4,-125.5 1377.9,-125.5 1377.9,-110.5 1520.8,-110.5 
			1520.8,-125.9 		"/>
		<polygon class="st23" points="1863.5,-126.8 1863.5,-95.2 1683.7,-95.2 1683.7,-126.3 1702.1,-126.4 1702.1,-110.5 1845.1,-110.5 
			1845.1,-126.8 		"/>
		<polygon class="st23" points="1924.3,-110.5 1924.3,-95.2 1898.9,-95.2 1898.9,-126.9 1917.3,-127 1917.3,-110.5 		"/>
	</g>
</g>
<g id="Слой_1" class="st24">
	<g class="st25">
		<g>
			<path d="M337.9,934.2c31.1-78.3,63.8-156,98.3-232.9c33.4-74.4,67.5-148.8,107.1-220.2c20.5-37,42.7-73.1,68.2-106.9
				c1.9-2.6-2.4-5.1-4.3-2.5c-47.3,62.6-83.6,132.9-117.7,203.3c-36.1,74.6-70,150.3-102.5,226.6c-18.5,43.6-36.5,87.3-53.9,131.3
				C331.8,935.9,336.7,937.2,337.9,934.2L337.9,934.2z"/>
		</g>
	</g>
	<g class="st25">
		<g>
			<path d="M270.7,1036.8c31.6-77.7,63.3-155.5,96.9-232.4c32.2-73.7,66.1-146.7,104.2-217.5c20.1-37.3,41.3-74.1,64.3-109.7
				c1.7-2.7-2.6-5.2-4.3-2.5c-41.8,65-78.1,133.3-111.6,202.9c-35.7,74.1-68.3,149.7-100,225.7c-18.3,44-36.3,88.1-54.2,132.3
				C264.7,1038.4,269.5,1039.7,270.7,1036.8L270.7,1036.8z"/>
		</g>
	</g>
	<g class="st25">
		<g>
			<path d="M566.9,393.6c82.3-16.2,164.4-33.2,246.3-51.2c23.2-5.1,46.5-10.3,69.7-15.5c3.1-0.7,1.8-5.5-1.3-4.8
				c-81.8,18.5-163.9,36.1-246.1,52.8c-23.3,4.7-46.6,9.4-69.9,14C562.4,389.4,563.7,394.2,566.9,393.6L566.9,393.6z"/>
		</g>
	</g>
	<g class="st25">
		<g>
			<path d="M601.6,418c-0.8-0.5,3.4-3.4,3.8-3.6c2.3-0.9,5.3-0.9,7.8-1.4c5.8-1,11.7-2,17.5-3.1c10.7-1.9,21.4-3.7,32.2-5.5
				c21.4-3.7,42.9-7.2,64.4-10.6c43.6-6.9,87.4-13.1,131.3-17.7c84.9-8.9,170.8-11.9,255.8-3.2c48.2,5,96,13.8,142.6,27.1
				c3.1,0.9,4.4-3.9,1.3-4.8c-86.4-24.6-176.4-33.6-266-32.4c-92,1.2-183.4,12.9-274.1,27.4c-25.7,4.1-51.4,8.5-77,12.9
				c-6.5,1.1-13,2.3-19.5,3.4c-5.8,1-12.9,1.2-18.4,3.3c-4.5,1.7-9.8,9-4.1,12.4C601.8,424,604.3,419.7,601.6,418L601.6,418z"/>
		</g>
	</g>
	<g class="st25">
		<g>
			<path d="M611,398.9c-4.6,0.1-9.2,0.1-13.9,0.2c0,1.7,0,3.3,0,5c83.3-2.3,166.6-2.7,250-1.1c83.3,1.6,166.6,5.2,249.8,10.7
				c46.9,3.1,93.8,6.9,140.6,11.2c3.2,0.3,3.2-4.7,0-5c-83-7.7-166.3-13.5-249.6-17.3c-83.2-3.8-166.6-5.6-249.9-5.5
				c-47,0.1-93.9,0.8-140.8,2.1c-3.2,0.1-3.2,5,0,5c4.6-0.1,9.2-0.1,13.9-0.2C614.3,403.9,614.3,398.9,611,398.9L611,398.9z"/>
		</g>
	</g>
	<g class="st25">
		<g>
			<path d="M1285.9,400.1c13.9,81.4,35.9,161.2,63.7,238.9c28.3,79.1,62.7,155.8,96.9,232.4c9.8,22,19.7,44,29.3,66.2
				c9.2,21.2,18.3,42.2,19.5,65.6c1.4-0.6,2.8-1.2,4.3-1.8c-29.6-35.2-51.3-76.6-68.3-119.1c-1.2-3-6-1.7-4.8,1.3
				c17.3,43.4,39.4,85.4,69.6,121.3c1.4,1.7,4.4,0.3,4.3-1.8c-0.9-19-6.7-36.7-14.1-54.1c-8.4-19.9-17.3-39.6-26.1-59.3
				c-17.6-39.4-35.3-78.7-52.4-118.4c-32.8-75.9-62.6-153.2-85.2-232.8c-13.1-46-23.8-92.6-31.8-139.7
				C1290.2,395.6,1285.4,396.9,1285.9,400.1L1285.9,400.1z"/>
		</g>
	</g>
	<g class="st25">
		<g>
			<path d="M1249.4,366.8c26.9,90.7,57.4,180.4,92.3,268.4c32.4,81.6,68.5,161.7,109.1,239.5c23.8,45.5,50.6,89.6,70.6,137
				c1.2-0.9,2.4-1.9,3.7-2.8c-2.1-1-4.3-2.1-6.4-3.1c-2.9-1.4-5.4,2.9-2.5,4.3c2.1,1,4.3,2.1,6.4,3.1c1.7,0.8,4.6-0.6,3.7-2.8
				c-17.8-42.2-41.1-81.7-62.6-122.1c-20.1-37.7-39-75.9-57-114.6c-38.5-82.9-72.5-167.9-102.8-254.2
				c-17.8-50.9-34.3-102.3-49.6-154C1253.3,362.4,1248.5,363.7,1249.4,366.8L1249.4,366.8z"/>
		</g>
	</g>
	<g class="st25">
		<g>
			<path d="M538.9,381.2c-28.9,6.3-57.8,12.7-86.6,19c-28.6,6.3-58.5,15.1-87.9,9.1c-3.1-0.6-4.5,4.2-1.3,4.8
				c29.1,6,58.4-2,86.7-8.2c30.2-6.6,60.3-13.3,90.5-19.9C543.4,385.4,542.1,380.6,538.9,381.2L538.9,381.2z"/>
		</g>
	</g>
	<g class="st25">
		<g>
			<path d="M544,405.3c-31.3-0.8-62.6-1.4-93.9-2.5c-30.7-1-61.6-3.3-91-12.8c-3.1-1-4.4,3.8-1.3,4.8c29.3,9.4,60,11.9,90.5,12.9
				c31.9,1.1,63.8,1.7,95.8,2.5C547.2,410.4,547.2,405.4,544,405.3L544,405.3z"/>
		</g>
	</g>
	<g class="st25">
		<g>
			<path d="M1322.4,356.2c16,7.9,34.2,9.5,51.7,11.2c20.3,2,40.7,3.8,61.1,5.2c41.6,2.9,83.3,4.6,124.9,5c2.9,0,3.2-4,0.7-4.9
				c-75.1-26.7-156.4-3.9-233.1,1.4c-6.1,0.4-62,5.2-60.3-6c-0.6,0.6-1.2,1.2-1.7,1.7c108-20,218-28.8,327.8-26.9
				c31,0.5,62,1.9,93,4.2c3.2,0.2,3.2-4.8,0-5c-110.4-8-221.7-5.1-331.5,8.9c-30.3,3.9-60.5,8.6-90.5,14.1c-0.8,0.1-1.6,1-1.7,1.7
				c-2.3,14.7,25.7,13.4,33.9,13.4c22.5,0,44.9-2,67.2-4.6c42.6-4.9,85.3-11.7,128.3-10.1c22.9,0.9,45.8,4.2,67.5,11.9
				c0.2-1.6,0.4-3.3,0.7-4.9c-40.4-0.4-80.7-2-121-4.7c-19.7-1.3-39.5-3-59.2-4.9c-18.4-1.8-38.2-2.8-55.1-11.1
				C1322,350.5,1319.5,354.8,1322.4,356.2L1322.4,356.2z"/>
		</g>
	</g>
	<g class="st25">
		<g>
			<path d="M338.1,413c-45.5,77.8-92.5,154.9-140.9,230.9c-13.3,21-26.8,41.8-40.4,62.6c-1.8,2.7,2.6,5.2,4.3,2.5
				c48.9-74.9,96.3-150.8,142.3-227.6c13.1-21.9,26.1-43.9,39.1-66C344.1,412.7,339.7,410.2,338.1,413L338.1,413z"/>
		</g>
	</g>
	<g class="st25">
		<g>
			<path d="M348.2,435.9c-70.9,74.7-130.6,159.7-181.9,248.8c-16,27.8-31.2,56.1-45.7,84.8c-1.4,2.9,2.9,5.4,4.3,2.5
				c48.4-95.7,104.9-187.9,172.8-271.1c17.3-21.2,35.3-41.7,54.1-61.5C354,437.1,350.4,433.6,348.2,435.9L348.2,435.9z"/>
		</g>
	</g>
	<g class="st25">
		<g>
			<g>
				<path d="M1419.9,397.1c-1.7,44-3.4,88-5.1,132.1c1.7,0,3.3,0,5,0c-2.1-51.4-3-104.7,12-154.5c-1.6-0.2-3.3-0.4-4.9-0.7
					c-7.2,55.3-13.2,110.8-18.1,166.4c-0.3,2.9,4.1,3.3,4.9,0.7c3.3-11,4.1-22.6,2.7-34c-0.4-3.2-5.4-3.2-5,0
					c1.3,11,0.7,22-2.5,32.7c1.6,0.2,3.3,0.4,4.9,0.7c4.9-55.6,10.9-111,18.1-166.4c0.4-2.9-4.1-3.3-4.9-0.7
					c-15.2,50.2-14.3,104-12.2,155.8c0.1,3.2,4.9,3.2,5,0c1.7-44,3.4-88,5.1-132.1C1425.1,393.9,1420.1,393.9,1419.9,397.1
					L1419.9,397.1z"/>
			</g>
		</g>
		<g>
			<g>
				<path d="M1415.1,513.8c-5.2-0.2-3.6,7.5-2.5,10.4c3.6,9.3,8.7,18.3,13.3,27.1c8.9,17.1,18.6,33.8,29.2,49.9c1.3-1,2.6-2,3.9-3
					c-17.6-16.4-35.1-32.7-52.7-49.1c-2-1.9-5.4,0.5-3.9,3c11,18.7,21.9,37.9,36.3,54.3c12,13.6,28.3,26.5,47.4,25.4
					c3.2-0.2,3.2-5.2,0-5c-19,1.2-34.6-12.9-46.1-26.5c-13-15.5-23.2-33.3-33.3-50.7c-1.3,1-2.6,2-3.9,3
					c17.6,16.4,35.1,32.7,52.7,49.1c2,1.9,5.5-0.6,3.9-3c-8.3-12.8-16.2-25.9-23.5-39.3c-3.7-6.8-7.3-13.7-10.8-20.6
					c-1.7-3.4-3.3-6.8-5-10.2c-0.8-1.7-1.7-3.4-2.4-5.2c-0.7-1.2-1.1-2.4-1.2-3.8c0.3-1.3-0.1-1.6-1.3-0.8
					C1418.3,518.9,1418.3,513.9,1415.1,513.8L1415.1,513.8z"/>
			</g>
		</g>
		<g>
			<g>
				<path d="M1428.4,403.4c17.3,24.1,34.7,48.2,52,72.3c8.4,11.7,16.8,23.4,25.2,35.1c3.7,5.2,7.5,10.3,11.4,15.3
					c2.2,2.8,4.5,5.6,6.8,8.4c1.7,2,3.4,4.7,5.8,5.9c2.8,1.5,5.3-2.8,2.5-4.3c-2.5-1.3-4.7-5.1-6.5-7.2c-2.4-2.8-4.7-5.8-6.9-8.7
					c-3.9-5.2-7.7-10.4-11.5-15.7c-8.3-11.5-16.5-23-24.8-34.5c-16.6-23-33.1-46.1-49.7-69.1
					C1430.9,398.3,1426.5,400.8,1428.4,403.4L1428.4,403.4z"/>
			</g>
		</g>
		<g>
			<g>
				<path d="M1472.5,420.9c-0.6-2.1-0.9-4.2-1-6.4c-1.6,0.2-3.3,0.4-4.9,0.7c8.2,20.1,13.9,41,17.7,62.3c0.6,3.2,5.4,1.8,4.8-1.3
					c-3.8-21.3-9.5-42.2-17.7-62.3c-1-2.4-5-2.4-4.9,0.7c0.1,2.7,0.4,5.2,1.1,7.8C1468.5,425.4,1473.3,424,1472.5,420.9
					L1472.5,420.9z"/>
			</g>
		</g>
		<g>
			<g>
				<path d="M1506.6,548.6c-0.7-8.7-2.3-17.1-5.2-25.3c-0.9-2.5-4.9-2.3-4.9,0.7c0.4,47.1,0.9,94.1,1.3,141.2
					c1.6-0.2,3.3-0.4,4.9-0.7c-8.3-54.3-5.7-109.6-3.3-164.3c-1.7,0-3.3,0-5,0c0.4,24.3,0.1,48.5-1,72.7c-0.5,11.5-1.1,23-2,34.4
					c-0.7,8.5-1.3,20.6-8,26.8c-2.4,2.2,1.2,5.7,3.5,3.5c6-5.6,7.6-14.7,8.6-22.5c1.6-12,2-24.3,2.6-36.4
					c1.3-26.2,1.7-52.4,1.2-78.6c-0.1-3.2-4.9-3.2-5,0c-2.5,55.2-4.9,110.8,3.5,165.6c0.4,2.8,4.9,2.1,4.9-0.7
					c-0.4-47.1-0.9-94.1-1.3-141.2c-1.6,0.2-3.3,0.4-4.9,0.7c2.8,7.8,4.4,15.8,5,24C1501.8,551.8,1506.8,551.8,1506.6,548.6
					L1506.6,548.6z"/>
			</g>
		</g>
		<g>
			<g>
				<path d="M1408.1,547.9c-0.5-2.1-1.1-4.2-1.6-6.4c-1.5,0.6-3,1.3-4.6,1.9c15.1,21.3,22.3,47.2,31.4,71.3
					c7.8,20.8,17,45.4,36,58.6c2.3,1.6,4.3-1.4,3.4-3.4c-8.9-19.8-17.8-39.6-26.7-59.4c-4.3-9.6-8.6-19.2-12.9-28.8
					c-4.1-9.1-7.9-18.4-13.6-26.6c-1.9-2.7-5.6-0.4-4.3,2.5c17,38.1,38.1,74.5,64.7,106.6c2.1,2.5,5.6-1.1,3.5-3.5
					c-26.3-31.8-47.1-68-63.9-105.6c-1.4,0.8-2.9,1.7-4.3,2.5c5.5,7.9,9.2,16.9,13.2,25.7c4.4,9.9,8.9,19.8,13.3,29.7
					c8.9,19.8,17.8,39.6,26.7,59.4c1.1-1.1,2.3-2.3,3.4-3.4c-9.4-6.5-15.8-16.5-21-26.5c-6.1-11.5-10.7-23.6-15.2-35.8
					c-8.2-22.4-15.5-46.2-29.4-65.8c-1.6-2.2-5.3-1-4.6,1.9c0.5,2.1,1.1,4.2,1.6,6.4C1404,552.4,1408.9,551,1408.1,547.9
					L1408.1,547.9z"/>
			</g>
		</g>
		<g>
			<g>
				<path d="M1503.6,502.2c33.3,16.4,66.6,32.8,99.9,49.3c16.6,8.2,33.3,16.4,49.9,24.6c8.1,4,16.2,8.3,24.4,12
					c5.1,2.3,9.8,3,14.2-1c2.4-2.1-1.1-5.7-3.5-3.5c-3.9,3.5-9.3-0.3-13-2.2c-3.6-1.8-7.1-3.5-10.7-5.3c-7.4-3.7-14.9-7.3-22.3-11
					c-15.2-7.5-30.3-15-45.5-22.4c-30.3-15-60.6-29.9-91-44.9C1503.2,496.4,1500.7,500.7,1503.6,502.2L1503.6,502.2z"/>
			</g>
		</g>
		<g>
			<g>
				<path d="M1504.1,507.2c66.3,15,128.4,59.1,198.7,52.9c18.5-1.6,36.2-7.2,52.3-16.4c2.8-1.6,0.3-5.9-2.5-4.3
					c-62.5,35.7-131.3,3.6-192-19.5c-18-6.9-36.3-13.2-55.1-17.5C1502.3,501.6,1500.9,506.4,1504.1,507.2L1504.1,507.2z"/>
			</g>
		</g>
		<g>
			<g>
				<path d="M1430.4,405.7c-0.1,0.3-0.1,0.5-0.2,0.8c0.8-0.6,1.6-1.2,2.4-1.8c-0.2,0-0.4,0-0.7,0c0.7,0.4,1.4,0.8,2.2,1.2
					c-0.3-0.7,7.7-6.7,8.6-7.5c3.4-2.8,6.9-5.4,10.5-8c6.3-4.5,12.9-8.6,19.8-12.2c13.2-7,27.3-12.1,41.9-14.9
					c29.1-5.6,59-1,85.7,11.7c2.9,1.4,5.4-2.9,2.5-4.3c-22.8-10.9-47.9-16.3-73.2-14.4c-25.8,2-50.5,11.2-72.3,25.1
					c-6.7,4.3-13.1,9-19.2,14c-3.7,3-11.5,7.4-8.7,13c0.4,0.8,1.3,1.3,2.2,1.2c0.2,0,0.4,0,0.7,0c1.1,0,2.2-0.8,2.4-1.8
					c0.1-0.3,0.1-0.5,0.2-0.8C1435.9,403.9,1431.1,402.6,1430.4,405.7L1430.4,405.7z"/>
			</g>
		</g>
		<g>
			<g>
				<path d="M1437.1,400.2c10.6,2.6,21,0.8,31.5-1.5c12.1-2.7,24.3-4.9,36.6-6.1c23.9-2.3,47.9-1.2,71.5,3c3.1,0.6,4.5-4.3,1.3-4.8
					c-22.8-4.1-45.9-5.4-69-3.5c-11.2,0.9-22.3,2.5-33.3,4.8c-12.3,2.5-24.7,6.4-37.3,3.4C1435.3,394.6,1433.9,399.5,1437.1,400.2
					L1437.1,400.2z"/>
			</g>
		</g>
		<g>
			<g>
				<path d="M1541.3,390.6c13,4.1,26.5,6.4,40.2,6.6c13.7,0.1,27.2-2.4,40.7-4.7c26.6-4.5,53.3-5.7,74.6,13.4
					c2.4,2.1,5.9-1.4,3.5-3.5c-19.4-17.3-43.5-20-68.3-16.5c-14.7,2.1-29.2,5.6-44.1,6.2c-15.4,0.7-30.7-1.6-45.3-6.3
					C1539.6,384.8,1538.3,389.6,1541.3,390.6L1541.3,390.6z"/>
			</g>
		</g>
		<g>
			<g>
				<path d="M1547,382.9c64.9-9,130.9-3.8,193.8,14.3c3.1,0.9,4.4-3.9,1.3-4.8c-63.8-18.4-130.6-23.5-196.5-14.3
					C1542.5,378.6,1543.8,383.4,1547,382.9L1547,382.9z"/>
			</g>
		</g>
		<g>
			<g>
				<path d="M1708.5,400.9c-1.8-3.3-3.6-6.6-5.4-9.9c-1.4,0.8-2.9,1.7-4.3,2.5c29.2,48.3,59.9,95.7,92.2,142
					c1.6,2.2,5.4,0.9,4.6-1.9c-3-11-8.2-21.2-15.5-30c-8.5-10.2-19.7-17.3-29.4-26.3c-10.4-9.6-18.5-21.4-26.8-32.8
					c-4.3-6-8.7-12-13-18c-2.3-3.2-12.9-14.4-7.7-18.6c-1.3-0.2-2.6-0.3-3.9-0.5c27.5,50.2,59,98.1,95.8,142
					c2.1,2.5,5.6-1.1,3.5-3.5c-36.5-43.5-67.7-91.2-95-141c-0.8-1.6-2.7-1.5-3.9-0.5c-3.6,2.9-2.9,9-1.3,12.7
					c2.6,6,7.7,11.4,11.6,16.7c9,12.5,17.7,25.3,27.6,37c9.7,11.4,22.1,19.5,32.8,29.8c9.9,9.5,16.8,21.1,20.4,34.3
					c1.5-0.6,3-1.3,4.6-1.9c-32.3-46.3-63-93.7-92.2-142c-1.7-2.8-5.8-0.3-4.3,2.5c1.8,3.3,3.6,6.6,5.4,9.9
					C1705.7,406.3,1710,403.8,1708.5,400.9L1708.5,400.9z"/>
			</g>
		</g>
		<g>
			<g>
				<path d="M1795.4,532.5c-16.9-12.6-37.2-11.2-53.4,1.9c-2.5,2,1.1,5.6,3.5,3.5c14.5-11.8,32.3-12.3,47.3-1.2
					C1795.5,538.7,1797.9,534.4,1795.4,532.5L1795.4,532.5z"/>
			</g>
		</g>
		<g>
			<g>
				<path d="M1500,593.5c-5,27.1-8,54.5-9,82c1.6-0.2,3.3-0.4,4.9-0.7c-1-3.6-0.6-9.5,2.6-12.1c4.4-3.6,12.6,2.9,16.7,4.8
					c8,3.7,16.3,6.7,24.9,8.9c8.3,2.1,16.8,3.3,25.3,3.7c4.7,0.2,9.4,0.1,14.1-0.2c4.4-0.3,8.4-1,11.6,2.7c-0.1-1-0.3-2-0.4-3
					c-0.8,1.5-1.6,3-2.4,4.5c-1.5,2.8,2.8,5.4,4.3,2.5c0.8-1.5,1.6-3,2.4-4.5c0.6-1,0.4-2.2-0.4-3c-6.4-7.5-18-3.7-26.6-3.9
					c-12.6-0.3-25.1-2.7-37.1-6.7c-6.3-2.1-12.4-4.8-18.3-7.8c-4-2-8.6-5.1-13.4-3.9c-7.9,1.9-9.9,12.7-8.1,19.4
					c0.7,2.8,4.8,2.1,4.9-0.7c1-27.1,3.9-54.1,8.9-80.7C1505.4,591.7,1500.5,590.3,1500,593.5L1500,593.5z"/>
			</g>
		</g>
		<g>
			<g>
				<path d="M1553.3,678.3c-19.2-5.6-39.2-5.6-58.4,0.1c0.6,1.5,1.3,3,1.9,4.6c26.3-16.8,56.2-11.6,85-6c14.4,2.8,28.7,5.3,43.4,5.7
					c15.7,0.3,31.4-1.3,46.9-4c18.8-3.2,37.2-7.9,55.6-12.6c3.1-0.8,1.8-5.6-1.3-4.8c-32.8,8.4-66.1,17-100.2,16.5
					c-29.3-0.5-57.4-11.1-86.7-11.4c-16.1-0.1-31.6,3.7-45.2,12.4c-2.3,1.5-0.9,5.4,1.9,4.6c18.4-5.5,37.3-5.5,55.7-0.1
					C1555.1,684,1556.4,679.2,1553.3,678.3L1553.3,678.3z"/>
			</g>
		</g>
		<g>
			<g>
				<path d="M1783.9,529.6c1.4,55-1.5,110.1-9.1,164.5c1.6,0.2,3.3,0.4,4.9,0.7c0.9-24.4,1.7-48.8,2.6-73.1
					c-1.6,0.2-3.3,0.4-4.9,0.7c2.2,13.1-0.7,28.6-9.5,38.9c-10.2,12-26.8,9.6-40.8,8.2c-32.5-3.1-64.5-10.5-95.2-21.4
					c-3-1.1-4.3,3.8-1.3,4.8c34.7,12.2,70.9,20.2,107.6,22.5c13.8,0.9,27.1-1.6,35.6-13.6c8.2-11.6,10.8-26.9,8.5-40.7
					c-0.5-2.9-4.8-2-4.9,0.7c-0.9,24.4-1.7,48.8-2.6,73.1c-0.1,2.8,4.5,3.5,4.9,0.7c7.7-54.9,10.8-110.4,9.3-165.9
					C1788.8,526.4,1783.8,526.4,1783.9,529.6L1783.9,529.6z"/>
			</g>
		</g>
		<g>
			<g>
				<path d="M1470.3,630.7c-4.7,6.2-9.3,12.3-14,18.5c-2,2.7-12.8,19.9-16.4,16c0.2,0.8,0.4,1.6,0.6,2.4c4.7-17.3,11.1-34,20-49.6
					c1.6-2.8-2.6-5.2-4.3-2.5c-6,9.6-10.3,20-13.5,30.8c-0.9,3.1,3.9,4.4,4.8,1.3c3.1-10.4,7.2-20.4,13-29.6
					c-1.4-0.8-2.9-1.7-4.3-2.5c-4.9,8.6-9,17.5-12.6,26.6c-2,5-3.7,10.2-5.3,15.3c-1.1,3.4-4.2,8.8-1.4,11.9
					c5.9,6.4,13-3.2,16.2-7.5c7.2-9.5,14.3-19,21.5-28.5C1476.6,630.6,1472.2,628.1,1470.3,630.7L1470.3,630.7z"/>
			</g>
		</g>
		<g>
			<g>
				<path d="M1485.8,687.8c0,0,0-0.1,0-0.1c-0.9,0.4-1.9,0.8-2.8,1.1c0.2,0,0.4,0.1,0.5,0.1c-0.6-0.6-1.2-1.2-1.7-1.7
					c1.3,3.6-0.5,9.4-0.9,13.2c-0.5,4.9-1,9.8-1.5,14.7c-0.3,3.2,4.7,3.2,5,0c0.7-7.2,1.4-14.4,2.2-21.6c0.3-2.9,1.8-8.6-2.3-9.5
					c-1.2-0.3-2.2,0.2-2.8,1.1c-0.7,0.9-0.8,1.5-0.7,2.7C1481.1,691,1486.1,691,1485.8,687.8L1485.8,687.8z"/>
			</g>
		</g>
		<g>
			<g>
				<path d="M1706.5,713.6c0.1,0.1,0.1,0.2,0.2,0.3c1.1,1.5,3.2,1.7,4.3,0c0.9-1.4,0.8-2.6,0.1-4c-0.3-0.7-1.4-1.3-2.2-1.2
					c-3.8,0.4-4.3,4.8-5.3,7.8c-2.1,6.3-4.2,12.6-6.3,18.9c-0.9,2.6,3.4,4.5,4.6,1.9c7-15.2,13.9-30.4,20.9-45.7
					c1.3-2.9-3-5.4-4.3-2.5c-7,15.2-13.9,30.4-20.9,45.7c1.5,0.6,3,1.3,4.6,1.9c1.4-4.2,2.8-8.4,4.2-12.6c1.2-3.6,2-8.5,4.2-11.6
					c-0.7,0.4-1.4,0.8-2.2,1.2c0.2,0,0.3,0,0.5-0.1c-0.7-0.4-1.4-0.8-2.2-1.2c0-0.3-0.1-0.7-0.1-1c1.4,0,2.9,0,4.3,0
					c-0.1-0.1-0.1-0.2-0.2-0.3C1708.9,708.5,1704.6,711,1706.5,713.6L1706.5,713.6z"/>
			</g>
		</g>
		<g>
			<g>
				<path d="M1732.5,685.5c3.3,15.9,9.7,33.2,22.3,44c3.4,2.9,9.1,5.6,11.8,0.3c1.6-3.2-0.1-6.1-1.6-9.1c-1.9-3.9-4.3-7.5-7.2-10.8
					c-1.3-1.5-3.6-0.6-4.2,1.1c-2.3,6.8-2.4,14.4-0.2,21.2c1,3.1,5.8,1.7,4.8-1.3c-2-6.1-1.9-12.5,0.2-18.6
					c-1.4,0.4-2.8,0.7-4.2,1.1c1.9,2.1,3.5,4.4,4.9,6.9c0.6,1,2.1,3.3,2.2,4.5c-0.3,1-0.6,1.9-0.8,2.9c-0.4-0.3-0.8-0.6-1.3-0.9
					c-3.8-1.6-7.5-7.7-9.7-10.9c-6.3-9.6-10-20.5-12.3-31.7C1736.7,681.1,1731.9,682.4,1732.5,685.5L1732.5,685.5z"/>
			</g>
		</g>
	</g>
	<g class="st25">
		<g>
			<path d="M262.5,1074.5c20.9,5.9,43.1,4.9,64.6,4.9c22.3-0.1,44.6-0.6,66.9-1.4c45.3-1.6,90.5-4.5,135.7-7.8
				c90.4-6.6,180.7-14.8,271.3-17.9c51.1-1.8,102.3-1.9,153.3,0.8c3.2,0.2,3.2-4.8,0-5c-90.1-4.7-180.4-0.7-270.3,5.6
				c-89.8,6.2-179.4,14.6-269.4,18.5c-25.2,1.1-50.5,1.9-75.7,2.1c-24.7,0.2-51.1,2.2-75.1-4.6
				C260.7,1068.8,259.4,1073.6,262.5,1074.5L262.5,1074.5z"/>
		</g>
	</g>
	<g class="st25">
		<g>
			<path d="M1569.7,1080.5c-88-28.3-180.8-31.2-272.5-31c-95.7,0.2-191.4,0.9-287,2.5c-54.4,0.9-108.8,2.2-163.1,4.2
				c-3.2,0.1-3.2,5.1,0,5c96.1-3.5,192.3-4.9,288.5-5.7c47.6-0.4,95.2-0.6,142.8-0.9c45.6-0.2,91.2-0.3,136.7,2.9
				c52,3.6,103.7,11.8,153.4,27.8C1571.4,1086.3,1572.7,1081.4,1569.7,1080.5L1569.7,1080.5z"/>
		</g>
	</g>
	<g class="st25">
		<g>
			<path d="M355.4,393.6c-8.7-3.9-17.9-4.1-27.3-4.3c-10.9-0.2-21.8-0.3-32.7-0.2c-21.3,0.3-42.7,1.9-63.6,6.6
				c-3.1,0.7-1.8,5.5,1.3,4.8c19.8-4.5,40-6,60.3-6.4c9.6-0.2,19.3-0.1,28.9,0.1c10.2,0.1,21.1-0.6,30.6,3.7
				C355.8,399.2,358.4,394.9,355.4,393.6L355.4,393.6z"/>
		</g>
	</g>
	<g class="st25">
		<g>
			<path d="M400.9,394.9c-49.8,9.8-100.6,13-151.2,9.8c-3.2-0.2-3.2,4.8,0,5c51.1,3.3,102.4-0.1,152.6-9.9
				C405.4,399.1,404,394.3,400.9,394.9L400.9,394.9z"/>
		</g>
	</g>
	<g class="st25">
		<g>
			<path d="M233.5-0.5c9.3,89.5,10.8,179.7,4.3,269.4c-1.9,25.5-4.4,51-7.5,76.4c1.7,0,3.3,0,5,0c-0.1-5.2-0.2-10.5-0.4-15.7
				c-0.1-3.2-5.1-3.2-5,0c0.1,5.2,0.2,10.5,0.4,15.7c0.1,3.3,4.6,3.1,5,0c11-89.3,14.2-179.5,9.3-269.3c-1.4-25.6-3.4-51.1-6.1-76.6
				C238.2-3.7,233.2-3.7,233.5-0.5L233.5-0.5z"/>
		</g>
	</g>
	<g class="st25">
		<g>
			<path d="M224.6-4.3c-13.3,43.7-12.8,89.9-11.6,135.1c1.2,48.2,3.9,96.4,8.2,144.5c2.4,27,5.3,53.9,8.7,80.8c0.4,3.2,5.4,3.2,5,0
				c-5.9-47.2-10.3-94.6-13.3-142.1c-2.9-46.5-5.4-93.6-3.8-140.2c0.9-26,4-51.9,11.6-76.8C230.4-6,225.5-7.4,224.6-4.3L224.6-4.3z"
				/>
		</g>
	</g>
	<g class="st25">
		<g>
			<path d="M1682.8,23.5c1.6-10-0.7-19.7-6.8-27.8c-0.9-1.2-2.7-1.8-3.9-0.5c-12.3,13-14.3,31.2-15.1,48.3
				c-1.1,23.4-2,46.7-2.7,70.1c-1.6,47.2-2.7,94.4-3.2,141.6c-0.3,26.6-0.5,53.2-0.4,79.8c0,3.2,5,3.2,5,0
				c0-91.1,1.8-182.2,5.6-273.2c0.9-20.8-0.9-46.7,14.4-63.1c-1.3-0.2-2.6-0.3-3.9-0.5c5.3,6.9,7.7,15.2,6.3,23.9
				C1677.4,25.3,1682.3,26.7,1682.8,23.5L1682.8,23.5z"/>
		</g>
	</g>
	<g class="st25">
		<g>
			<path d="M1647.7,5.7c-0.9,78.2,2.9,156.4,11.3,234.1c2.3,21.5,5,43,8.1,64.5c1.6-0.4,3.2-0.9,4.8-1.3c-1.2-3.6-2.3-7.2-3.5-10.9
				c-1-3-5.8-1.7-4.8,1.3c1.2,3.6,2.3,7.2,3.5,10.9c1,3.1,5.3,1.8,4.8-1.3C1661,226,1654.7,148.5,1653,71
				c-0.5-21.8-0.6-43.5-0.3-65.3C1652.7,2.4,1647.7,2.4,1647.7,5.7L1647.7,5.7z"/>
		</g>
	</g>
	<g class="st25">
		<g>
			<path d="M1668.6,46.6c-6,83.3-12.5,166.5-19.6,249.7c-2,23.5-4,47.1-6.1,70.6c-0.3,3.2,4.7,3.2,5,0
				c7.4-83.2,14.2-166.4,20.5-249.6c1.8-23.6,3.5-47.1,5.2-70.7C1673.9,43.4,1668.9,43.4,1668.6,46.6L1668.6,46.6z"/>
		</g>
	</g>
	<g class="st25">
		<g>
			<path d="M1222.1,389.8c83.9,13.7,169.4,17.2,254.1,10c23.4-2,46.8-4.8,70-8.3c3.2-0.5,1.8-5.3-1.3-4.8
				c-82.6,12.6-166.7,15.1-250,7.5c-23.9-2.2-47.8-5.3-71.5-9.2C1220.3,384.5,1219,389.3,1222.1,389.8L1222.1,389.8z"/>
		</g>
	</g>
	<g class="st25">
		<g>
			<path d="M1287.5,359.6c-3.8,0.2-7.1-3.7-5.4-7.4c-0.7,0.4-1.4,0.8-2.2,1.2c68,2.9,135.8,8.8,203.3,17.6
				c19.7,2.6,39.3,5.4,58.9,8.4c3.1,0.5,4.5-4.3,1.3-4.8c-67.8-10.6-136-18.2-204.4-22.9c-19.7-1.3-39.4-2.4-59.1-3.3
				c-0.8,0-1.8,0.5-2.2,1.2c-3.2,6.9,1.8,15.3,9.7,15C1290.7,364.5,1290.8,359.5,1287.5,359.6L1287.5,359.6z"/>
		</g>
	</g>
	<g class="st25">
		<g>
			<path d="M620.1,465.8c-13.6,28.6-27.2,57.1-40.8,85.7c-1.3,2.7,1.7,4.8,3.9,3c0.9-0.7,1.9-1.5,2.8-2.2c2.5-2-1-5.5-3.5-3.5
				c-0.9,0.7-1.9,1.5-2.8,2.2c1.3,1,2.6,2,3.9,3c13.6-28.6,27.2-57.1,40.8-85.7C625.8,465.4,621.5,462.9,620.1,465.8L620.1,465.8z"
				/>
		</g>
	</g>
	<g class="st25">
		<g>
			<path d="M606.9,464.5c15.9-3.1,32-1.5,47.9,1c14.5,2.2,29,4.6,43.7,6.1c30.5,3.2,61.3,3.6,92,1.5c3.2-0.2,3.2-5.2,0-5
				c-31.3,2.1-62.7,1.6-93.9-1.7c-30-3.2-60.8-12.6-91-6.7C602.5,460.3,603.8,465.1,606.9,464.5L606.9,464.5z"/>
		</g>
	</g>
	<g class="st25">
		<g>
			<path d="M793.3,471.2c1.8,33.7-5.2,67.4-20.3,97.6c1.5,0.6,3,1.3,4.6,1.9c7.3-36.4,14.6-72.7,21.8-109.1
				c-1.6-0.2-3.3-0.4-4.9-0.7c-3.4,42.9-14.8,85.6-38.9,121.7c-1.8,2.7,2.5,5.2,4.3,2.5c24.6-36.9,36.1-80.4,39.6-124.2
				c0.2-2.8-4.4-3.4-4.9-0.7c-7.3,36.4-14.6,72.7-21.8,109.1c-0.5,2.6,3.2,4.6,4.6,1.9c15.5-31,22.8-65.5,21-100.1
				C798.1,468,793.1,468,793.3,471.2L793.3,471.2z"/>
		</g>
	</g>
	<g class="st25">
		<g>
			<path d="M559.1,578.8c26.9-3.4,53.9-6,81-7.8c13.4-0.9,26.7-1.5,40.1-2c10-0.4,25.8-2.9,32.6,6.5c0.5-1.2,1-2.4,1.5-3.7
				c-26,4.2-52.2,0.2-78.3,2c-10.8,0.7-21.7,2.4-32,5.8c-4.8,1.6-9.5,3.6-13.9,6.1c-3.8,2.1-9.2,4.7-11.2,8.8
				c-3.5,6.9,3.4,11.2,9.4,12c4.3,0.6,8.5-0.4,12.7-1c7.2-1.2,14.5-2.3,21.7-3.5c27-4.3,53.9-8.6,80.9-12.9
				c30.9-4.9,61.8-9.9,92.7-14.8c3.2-0.5,1.8-5.3-1.3-4.8c-48.3,7.7-96.7,15.4-145,23.2c-12.2,1.9-24.3,3.9-36.5,5.8
				c-5.6,0.9-11.2,1.8-16.8,2.7c-3.3,0.5-10.8,1.8-13.2-1.7c-4-5.8,21.2-14.8,24.9-15.9c10-3,20.4-4.3,30.8-4.8
				c25.5-1.3,51,2.2,76.4-2c1.5-0.2,2.4-2.4,1.5-3.7c-6-8.3-16.2-9.5-25.8-9.4c-14.5,0.2-29,1-43.5,1.9c-29.7,1.8-59.3,4.6-88.8,8.3
				C555.9,574.2,555.9,579.2,559.1,578.8L559.1,578.8z"/>
		</g>
	</g>
	<g class="st25">
		<g>
			<path d="M878.5,457.5c-6.7,5.4-5.9,16.5-6.9,24.3c-1.6,12.3-3.7,24.6-6.2,36.8c-4.9,23.2-11.5,46.1-19.6,68.3
				c1.6,0.4,3.2,0.9,4.8,1.3c13.2-41.4,15.6-85,17.9-128.1c0.2-3.3-4.7-3.1-5,0c-2.8,25.7-5.5,51.5-8.3,77.2c-0.3,3.2,4.7,3.2,5,0
				c2.8-25.7,5.5-51.5,8.3-77.2c-1.7,0-3.3,0-5,0c-2.2,42.7-4.6,85.8-17.7,126.8c-1,3.1,3.7,4.3,4.8,1.3
				c7.7-21.1,14.1-42.7,18.9-64.6c2.4-10.8,4.3-21.7,5.9-32.7c0.7-4.9,1.4-9.8,1.9-14.8c0.6-5.1,0.4-11.5,4.7-15.1
				C884.6,459,881,455.5,878.5,457.5L878.5,457.5z"/>
		</g>
	</g>
	<g class="st25">
		<g>
			<path d="M863.3,470.1c50.6,3,101.3,4.5,152,4.5c3.2,0,3.2-5,0-5c-50.7,0-101.4-1.5-152-4.5C860.1,464.9,860.1,469.9,863.3,470.1
				L863.3,470.1z"/>
		</g>
	</g>
	<g class="st25">
		<g>
			<path d="M894.5,484.6c44-17.1,94-16.6,137.5,1.9c2.9,1.2,5.5-3.1,2.5-4.3c-44.8-19-96-20.1-141.4-2.4
				C890.2,480.9,891.5,485.7,894.5,484.6L894.5,484.6z"/>
		</g>
	</g>
	<g class="st25">
		<g>
			<path d="M1024.8,471.9c2.3,17.2,8.5,33.3,15.1,49.3c3.2,7.9,6.5,15.8,9.5,23.8c3,8.2,8,18.8,4.9,27.4c1.4-0.4,2.8-0.7,4.2-1.1
				c-6.1-5.2-9.2-13-12.4-20.1c-3.8-8.5-7.3-17.2-10.4-25.9c-5.8-16.5-10.3-33.5-13.6-50.8c-1.6,0.4-3.2,0.9-4.8,1.3
				c6.8,30.7,12.7,61.5,17.8,92.5c0.5,3.2,5.3,1.8,4.8-1.3c-5.1-31-11.1-61.8-17.8-92.5c-0.7-3.2-5.4-1.8-4.8,1.3
				c3.5,18.5,8.4,36.6,14.8,54.2c3,8.3,6.4,16.5,10,24.5c3.3,7.3,6.6,15,12.8,20.3c1.5,1.3,3.5,0.8,4.2-1.1
				c2.9-8.3-0.5-17.2-3.2-25.1c-2.9-8.6-6.4-17.1-9.9-25.5c-7-17-13.9-34.2-16.4-52.5C1029.2,467.4,1024.3,468.7,1024.8,471.9
				L1024.8,471.9z"/>
		</g>
	</g>
	<g class="st25">
		<g>
			<path d="M854,577.4c26.6-1.1,53.2-1.5,79.8-1.3c13,0.1,25.9,0.4,38.9,0.8c8.7,0.3,22.3,0.4,25.9,10.3c0.6-1,1.2-2.1,1.7-3.1
				c-16.1,3.1-32.5,0.2-48.6-1.2c-7.8-0.7-15.7-1.1-23.5-0.3c-6.2,0.7-13.8,1.7-19.2,5.2c-4.2,2.7-4.5,7.5-0.5,10.5
				c5.6,4.1,13.6,5.8,20.3,6.8c16.1,2.3,32.9,0.5,48.9-1.7c19.4-2.7,38.4-7.5,56.8-14.2c3-1.1,1.7-5.9-1.3-4.8
				c-17.5,6.4-35.6,11-54.1,13.8c-18.1,2.7-39,5.4-56.9,0.5c-1.9-0.5-3.9-1.1-5.7-1.9c-2-0.8-7.6-2.2-4.4-5
				c2.8-2.4,9.1-3.1,12.6-3.7c8.6-1.4,17.4-1,26.1-0.2c17,1.5,33.9,4.4,50.8,1.1c1.3-0.2,2.2-1.9,1.7-3.1
				c-3.2-8.6-11.5-11.9-20-13.2c-13-1.9-26.6-1.3-39.7-1.4c-29.9-0.4-59.9,0-89.8,1.2C850.8,572.5,850.8,577.5,854,577.4L854,577.4z
				"/>
		</g>
	</g>
	<g class="st25">
		<g>
			<path d="M1058.1,474.3c1.5-1.8,3-3.6,4.5-5.4c-1.3-0.2-2.6-0.3-3.9-0.5c11,15.8,15.4,35.5,22.9,53.1c7.9,18.6,17.3,36.6,28,53.7
				c1.4-0.8,2.9-1.7,4.3-2.5c-4.5-6.5-7.4-13.6-8.8-21.4c-0.6-3.2-5.4-1.8-4.8,1.3c1.4,8.2,4.5,15.7,9.3,22.6
				c1.8,2.6,6.1,0.2,4.3-2.5c-11-17.5-20.6-35.7-28.5-54.8c-7.2-17.3-11.6-36.4-22.4-52c-0.8-1.2-2.8-1.8-3.9-0.5
				c-1.5,1.8-3,3.6-4.5,5.4C1052.5,473.2,1056,476.7,1058.1,474.3L1058.1,474.3z"/>
		</g>
	</g>
	<g class="st25">
		<g>
			<path d="M1067.3,468.5c4.7,9.8,8.9,19.7,12.8,29.9c1.1,3,6,1.7,4.8-1.3c-4-10.5-8.5-20.9-13.3-31.1
				C1070.2,463.1,1065.9,465.6,1067.3,468.5L1067.3,468.5z"/>
		</g>
	</g>
	<g class="st25">
		<g>
			<path d="M1075.5,484.5c18.9-12.3,42.6-14.2,64.4-16.1c11.7-1,23.3-1.7,35-2c11.2-0.3,22.4-0.4,33-4.1c3-1.1,1.7-5.9-1.3-4.8
				c-11.5,4-23.6,3.7-35.6,4.1c-12.3,0.4-24.7,1.2-36.9,2.5c-21,2.1-43.1,4.5-61.1,16.3C1070.3,481.9,1072.8,486.2,1075.5,484.5
				L1075.5,484.5z"/>
		</g>
	</g>
	<g class="st25">
		<g>
			<path d="M1072.1,488.3c-0.1,0.1-0.1,0.3-0.2,0.4c1.3-0.2,2.6-0.3,3.9-0.5c0.9,0.8,7.8-3.9,8.9-4.4c2.7-1.2,5.6-2.1,8.6-2.8
				c6.4-1.5,12.9-1.9,19.4-1.6c14.6,0.7,29,4.3,43.4,6.7c28.3,4.8,56.7,8.3,85.3,10.6c3.2,0.3,3.2-4.7,0-5
				c-34.6-2.8-68.9-7.6-103-13.9c-14.5-2.7-29.4-5.1-44-2.3c-3.7,0.7-30.5,9.1-22,16.1c1.1,0.9,3.2,1.1,3.9-0.5
				c0.1-0.1,0.1-0.3,0.2-0.4C1077.8,487.9,1073.5,485.4,1072.1,488.3L1072.1,488.3z"/>
		</g>
	</g>
	<g class="st25">
		<g>
			<path d="M1211.7,462.4c14.3,30.9,28.5,61.8,42.8,92.8c1.4-0.8,2.9-1.7,4.3-2.5c-13.1-27.8-26.2-55.6-39.3-83.4
				c-1.4-2.9-5.7-0.4-4.3,2.5c16.7,35.6,33.3,71.2,46.2,108.3c1-1,2.1-2.1,3.1-3.1c-1.9-0.6-3-1.6-4.1-3.1c-2-2.5-5.5,1-3.5,3.5
				c1.7,2.2,3.7,3.5,6.3,4.4c1.7,0.6,3.7-1.3,3.1-3.1c-13.1-37.5-29.9-73.5-46.7-109.5c-1.4,0.8-2.9,1.7-4.3,2.5
				c13.1,27.8,26.2,55.6,39.3,83.4c1.4,2.9,5.7,0.4,4.3-2.5c-14.3-30.9-28.5-61.8-42.8-92.8C1214.7,456.9,1210.4,459.5,1211.7,462.4
				L1211.7,462.4z"/>
		</g>
	</g>
	<g class="st25">
		<g>
			<path d="M1114.2,594.6c1.5-4.1,7.8-3.3,11.2-3c5.5,0.5,11,1.1,16.5,1.8c11.7,1.4,23.4,3.2,35,5.2c10.9,1.9,21.7,4.1,32.5,6.6
				c9.8,2.3,19.5,4.8,27.8,10.7c2.6,1.9,5.1-2.5,2.5-4.3c-34.8-25-78.5-41.6-121.6-32c-3.1,0.7-1.8,5.5,1.3,4.8
				c34.1-7.4,68.7-11.7,103.5-12.7c3.2-0.1,3.2-5.1,0-5c-35.3,1.1-70.4,5.4-104.8,12.9c0.4,1.6,0.9,3.2,1.3,4.8
				c41.8-9.2,84.1,7.3,117.7,31.5c0.8-1.4,1.7-2.9,2.5-4.3c-9.4-6.7-20.7-9.3-31.8-11.8c-13-2.9-26.1-5.5-39.3-7.6
				c-12.7-2.1-25.5-3.8-38.4-5.1c-7.2-0.7-17.8-2.4-20.9,6.2C1108.3,596.3,1113.1,597.6,1114.2,594.6L1114.2,594.6z"/>
		</g>
	</g>
	<g class="st25">
		<g>
			<path d="M615.7,473c6.7,24.8,13.4,49.6,20.1,74.4c0.8,3.1,5.7,1.8,4.8-1.3c-6.7-24.8-13.4-49.6-20.1-74.4
				C619.6,468.5,614.8,469.8,615.7,473L615.7,473z"/>
		</g>
	</g>
	<g class="st25">
		<g>
			<path d="M626,542.8c9-6.9,19.6-10.8,30.3-14.3c11.8-3.9,23.6-7.8,35.7-10.9c12.1-3.2,24.4-5.6,36.9-6.3c6-0.3,12-0.3,18,0.3
				c4.2,0.4,13.1,1.1,13.2,7c0.1,3.2,5.1,3.2,5,0c-0.2-10.1-12.4-11.5-20.1-12.1c-14.4-1.1-29,0.6-43.1,3.6
				c-14.4,3.1-28.5,7.6-42.5,12.1c-12.5,4.1-25.3,8.1-35.9,16.3C620.9,540.4,623.4,544.8,626,542.8L626,542.8z"/>
		</g>
	</g>
	<g class="st25">
		<g>
			<path d="M874.1,465.2c1.5-1.1,4,2.6,4.4,3.7c0.4,1.2,0.8,2.3,1.2,3.5c0.9,2.6,1.7,5.3,2.4,8c1.4,5.1,2.7,10.2,3.7,15.3
				c2.2,10.7,3.5,21.5,4.1,32.4c0.2,3.2,5.2,3.2,5,0c-0.8-15.1-3-30-6.8-44.6c-1.5-5.6-5.8-30.3-16.6-22.7
				C869,462.7,871.5,467,874.1,465.2L874.1,465.2z"/>
		</g>
	</g>
	<g class="st25">
		<g>
			<path d="M890.6,519.6c22-3.8,44.6-4.5,66.8-2c21.2,2.4,42.5,11.1,64,7.8c3.2-0.5,1.8-5.3-1.3-4.8c-11.7,1.8-23.3-0.6-34.7-3.1
				c-10.5-2.3-21.1-4.2-31.8-5.3c-21.5-2.1-43.1-1.1-64.3,2.6C886.1,515.3,887.4,520.2,890.6,519.6L890.6,519.6z"/>
		</g>
	</g>
	<g class="st25">
		<g>
			<path d="M1012.3,477.4c-6.9,14.4-15.5,27.9-25.7,40.3c-2,2.5,1.5,6,3.5,3.5c10.5-12.7,19.4-26.5,26.5-41.3
				C1018,477.1,1013.7,474.5,1012.3,477.4L1012.3,477.4z"/>
		</g>
	</g>
	<g class="st25">
		<g>
			<path d="M896.8,516.9c-8.6,16.7-20.1,31.5-33.9,44.2c-0.8,0.7-1,2.1-0.4,3c2.1,3.3,5.8,3.7,8.8,1.3c2.5-2.1-1.1-5.6-3.5-3.5
				c-0.3-0.1-0.6-0.2-0.9-0.3c-0.1,1-0.3,2-0.4,3c14.2-12.9,25.9-28.2,34.7-45.2C902.6,516.5,898.3,514,896.8,516.9L896.8,516.9z"/>
		</g>
	</g>
	<g class="st25">
		<g>
			<path d="M972.2,521.4c23.5,11.3,43.6,28.6,58.1,50.3c1.8,2.7,6.1,0.2,4.3-2.5c-15-22.4-35.6-40.4-59.9-52.1
				C971.8,515.7,969.3,520,972.2,521.4L972.2,521.4z"/>
		</g>
	</g>
	<g class="st25">
		<g>
			<path d="M1079.7,511.9c-3,1.1-4.2,4.8-1.5,7.2c1.7,1.5,4.1,1.2,6.1,1c3.9-0.4,7.8-0.9,11.7-1.4c16-1.8,32-3.3,48-4.5
				c15.7-1.2,31.4-2,47.2-2.6c7.6-0.3,15.2-0.7,22.9-0.6c5.5,0,13.5,0.6,15.6,6.7c1,3,5.9,1.7,4.8-1.3c-2.9-8.6-12.4-10.3-20.4-10.4
				c-14.8-0.1-29.7,0.8-44.5,1.6c-15.1,0.8-30.1,1.9-45.2,3.2c-7.2,0.6-14.4,1.3-21.6,2.1c-3.9,0.4-7.8,0.8-11.7,1.3
				c-2,0.2-3.9,0.5-5.9,0.7c-0.7,0.1-1.3,0.2-2,0.2c-1.2-0.2-2,0.3-2.3,1.5C1084,515.6,1082.7,510.8,1079.7,511.9L1079.7,511.9z"/>
		</g>
	</g>
	<g class="st25">
		<g>
			<path d="M1077.1,476.9c15,15.5,31,29.9,47.9,43.2c2.5,2,6.1-1.5,3.5-3.5c-16.9-13.3-32.9-27.8-47.9-43.2
				C1078.3,471.1,1074.8,474.6,1077.1,476.9L1077.1,476.9z"/>
		</g>
	</g>
	<g class="st25">
		<g>
			<path d="M1114.7,514.8c0,27.3,0,54.7,0,82c0,3.2,5,3.2,5,0c0-27.3,0-54.7,0-82C1119.7,511.6,1114.7,511.6,1114.7,514.8
				L1114.7,514.8z"/>
		</g>
	</g>
	<g class="st25">
		<g>
			<path d="M1198.6,467.1c1.6-2.4,4-3.3,6.7-2.6c-0.6-0.8-1.2-1.6-1.8-2.4c-0.3,16.5-2,32.9-5.1,49.2c-0.6,3.1,4.2,4.5,4.8,1.3
				c3.2-16.7,4.9-33.5,5.3-50.5c0-1.1-0.8-2.1-1.8-2.4c-5-1.3-9.5,0.6-12.3,4.9C1192.6,467.3,1196.9,469.8,1198.6,467.1
				L1198.6,467.1z"/>
		</g>
	</g>
	<g class="st25">
		<g>
			<path d="M1210.6,521.2c7.9,17.2,13.6,35.1,17.2,53.7c0.6,3.2,5.4,1.8,4.8-1.3c-3.7-19-9.6-37.3-17.7-54.9
				C1213.6,515.7,1209.3,518.3,1210.6,521.2L1210.6,521.2z"/>
		</g>
	</g>
	<g class="st25">
		<g>
			<path d="M630.8,542.8c-17.1,17.3-34.3,34.5-51.4,51.8c-2.3,2.3,1.3,5.8,3.5,3.5c17.1-17.3,34.3-34.5,51.4-51.8
				C636.6,544.1,633,540.5,630.8,542.8L630.8,542.8z"/>
		</g>
	</g>
	<g class="st25">
		<g>
			<path d="M210.9,514.7c0.1-0.1,0.3-0.1,0.4-0.2c0.7-0.3,1.3-1.4,1.2-2.2c-0.2-3.3-4-5.2-6.1-2c-1.4,2.1-0.5,5.1-0.2,7.4
				c0.6,4.6,1.2,9.2,1.7,13.8c2.2,17.7,4.5,35.4,6.7,53.1c4.4,35.1,8.8,70.2,13.2,105.2c2.2,17.1,2.4,36.4,9.8,52.3
				c0.8,1.7,3.5,1.5,4.3,0c2.2-4,2.8-7.9,2-12.4c-0.5-3.2-5.3-1.8-4.8,1.3c0.5,3.2,0,5.8-1.5,8.5c1.4,0,2.9,0,4.3,0
				c-4-8.5-5.1-17.9-6.2-27.1c-1.2-9.2-2.3-18.4-3.5-27.5c-2.4-19.3-4.9-38.7-7.3-58c-2.4-19-4.8-38-7.2-57.1
				c-1.2-9.5-2.4-19-3.6-28.5c-0.6-4.6-1.2-9.2-1.7-13.8c-0.3-2.6-0.7-5.2-1-7.9c-0.2-2,0.2-5.7-1.9-5.9c-0.7-0.4-1.4-0.8-2.2-1.2
				c0-0.1,0.1-0.1,0.1-0.2c0.4-0.7,0.8-1.4,1.2-2.2c-0.1,0.1-0.3,0.1-0.4,0.2C205.4,511.7,208,516,210.9,514.7L210.9,514.7z"/>
		</g>
	</g>
	<g class="st25">
		<g>
			<path d="M305.3,488c4.2,0.1,5.5,11.2,6.3,14.1c1.2,4.9,2.4,9.8,3.5,14.7c2.2,9.8,4,19.7,5.7,29.6c3.4,20.3,5.9,40.7,8.2,61.1
				c2.2,20.1,4.2,40.2,6.4,60.3c1.1,9.6,2.3,19.2,3.6,28.8c0.7,5,1.4,10,2.2,15c0.4,2.5,0.8,5,1.2,7.5c0.2,1.2,0.4,2.5,0.6,3.7
				c0.1,2.3,1.2,4.2,3.4,5.5c-0.6,0.6-1.2,1.2-1.7,1.7c0.2,0,0.3-0.1,0.5-0.1c3.2-0.6,1.8-5.4-1.3-4.8c-0.2,0-0.3,0.1-0.5,0.1
				c-0.8,0.2-1.6,1-1.7,1.7c-0.8,3.9,4,6.8,6.3,2.9c1.5-2.4,0.3-5.8-0.1-8.4c-0.8-5-1.6-10-2.4-14.9c-2.9-19.8-5.1-39.6-7.2-59.5
				c-4.1-38.4-7.7-77-14.8-115c-2-10.5-4.3-21-6.9-31.3c-1.6-6.1-2.7-17.6-11.1-17.7C302,483,302,488,305.3,488L305.3,488z"/>
		</g>
	</g>
	<g class="st25">
		<g>
			<path d="M249.7,757c-3.8-0.2-7.5-0.1-11.3,0.4c-2.7,0.4-3.5,3.9-0.7,4.9c14.8,5.1,30.3,1.9,45.1-1.8c17.3-4.3,34.7-8.8,52-13.2
				c-0.4-1.6-0.9-3.2-1.3-4.8c-26.9,10.2-59.3-4.4-83.3,15.2c-1.6,1.3-0.5,3.6,1.1,4.2c3.3,1.2,6.5,0.5,9.8-0.2
				c4.7-0.9,9.4-1.9,14-3.2c8.5-2.3,16.6-5.7,23.5-11.1c13.2-10.3,20.7-25.9,27.6-40.8c1.4-2.9-3-5.4-4.3-2.5
				c-6.3,13.3-12.8,27.4-24,37.4c-6.3,5.6-13.8,9.1-21.8,11.5c-3.8,1.1-7.6,2-11.5,2.9c-3.8,0.8-8.3,2.5-12.1,1.2
				c0.4,1.4,0.7,2.8,1.1,4.2c22.6-18.5,55.4-4.2,81.1-13.9c3-1.1,1.8-5.6-1.3-4.8c-16.1,4.1-32.2,8.2-48.3,12.2
				c-15.1,3.8-30.9,7.9-46.1,2.7c-0.2,1.6-0.4,3.3-0.7,4.9c3.8-0.5,7.5-0.6,11.3-0.4C252.9,762.2,252.9,757.2,249.7,757L249.7,757z"
				/>
		</g>
	</g>
	<g class="st25">
		<g>
			<path d="M198.8,527.6c14.6-5.9,29.9-10,45.6-11.7c7.1-0.8,14.3-0.5,21.4-1.2c4-0.4,8-2.1,8-6.6c0-1.5-1.1-2.3-2.5-2.5
				c-15.1-1.7-30.2,0.3-44.3,5.8c-3,1.2-1.8,5.3,1.3,4.8c30.8-4.4,57.3-25.6,88.9-25.9c3.2,0,3.2-5,0-5c-32.2,0.3-58.9,21.5-90.2,26
				c0.4,1.6,0.9,3.2,1.3,4.8c13.8-5.4,28.3-7.3,43-5.6c-0.8-0.8-1.7-1.7-2.5-2.5c0,2.7-15,2-17,2.1c-6,0.4-12.1,1.2-18,2.2
				c-12.4,2.2-24.5,5.7-36.2,10.4C194.5,524,195.8,528.8,198.8,527.6L198.8,527.6z"/>
		</g>
	</g>
	<g class="st25">
		<g>
			<path d="M210.1,511.2c19.5-2.4,38.6-6.9,57.1-13.7c7.7-2.8,22.1-8.4,25.9,3c4.1,12.4-19.4,9.1-25.2,6.5c-2.9-1.3-5.5,3-2.5,4.3
				c8.5,3.8,24.4,6.4,31.1-2.3c5.1-6.6-0.1-16.1-6.9-19.1c-11.3-5-25.6,3.7-36.2,7c-14.1,4.4-28.6,7.5-43.3,9.3
				C206.9,506.6,206.9,511.6,210.1,511.2L210.1,511.2z"/>
		</g>
	</g>
	<g class="st25">
		<g>
			<path d="M245.9,492.3c0.2,1.6,0.3,3.1,0.5,4.7c1.6-0.2,3.3-0.4,4.9-0.7c-4.6-12.3-9.1-24.5-13.7-36.8c-1.1-3-5.7-1.8-4.8,1.3
				c4.1,15.3,7.3,30.8,9.7,46.4c0.4,2.8,5.2,2.1,4.9-0.7c-0.6-7-1.2-14-1.8-21c-0.3-3.8-0.6-8.5-4.1-10.8c-3.1-2-6.9-0.7-8.9,2.1
				c-2.9,4-1.2,8.8,0.6,12.9c0.7,1.8,3.5,1.5,4.3,0c5.5-9.8,8.6-20.4,9.5-31.5c-1.6,0.2-3.3,0.4-4.9,0.7c1.7,9,5.1,17.3,10.2,24.9
				c1.1,1.6,4.1,1.7,4.6-0.6c1.9-9.7,0.3-19.3-4.9-27.7c-1.3,1-2.6,2-3.9,3c9.7,10.1,18.2,21.2,25.5,33.2c1.1-1.1,2.3-2.3,3.4-3.4
				c-7.6-4.1-13.7-9.9-18.1-17.3c-1.6-2.8-6-0.2-4.3,2.5c4.9,8.1,11.6,14.6,19.9,19.1c2.1,1.2,4.8-1.2,3.4-3.4
				c-7.5-12.4-16.3-23.8-26.3-34.3c-2-2-5.4,0.6-3.9,3c4.5,7.3,6.1,15.5,4.4,23.9c1.5-0.2,3-0.4,4.6-0.6c-4.9-7.3-8-15.1-9.7-23.7
				c-0.6-2.9-4.7-2-4.9,0.7c-0.8,10.3-3.8,20-8.8,29c1.4,0,2.9,0,4.3,0c-0.4-1.1-1.4-2.7-1.4-3.9c1.4-4.6,2.5-5.7,3.4-3.3
				c0.3,0.4,0.5,0.9,0.6,1.5c0.7,2.5,0.6,5.4,0.9,7.9c0.5,5.7,1,11.4,1.5,17.2c1.6-0.2,3.3-0.4,4.9-0.7c-2.4-15.7-5.6-31.1-9.7-46.4
				c-1.6,0.4-3.2,0.9-4.8,1.3c4.6,12.3,9.1,24.5,13.7,36.8c0.9,2.4,5.2,2.4,4.9-0.7c-0.2-1.6-0.3-3.1-0.5-4.7
				C250.5,489.2,245.5,489.1,245.9,492.3L245.9,492.3z"/>
		</g>
	</g>
	<g class="st25">
		<g>
			<path d="M246,456.5c-2.3-19-7.4-37.3-15.3-54.7c-1.2-2.6-5.6-0.7-4.6,1.9c6.2,16.5,12.3,33,18.5,49.5c0.9,2.4,5.3,2.4,4.9-0.7
				c-1.9-16.9-5.9-33.3-12.2-49.1c-1.2-2.9-5.7-1.8-4.8,1.3c3.5,12.2,7.1,24.5,10.6,36.7c0.9,3.1,5.7,1.8,4.8-1.3
				c-3.5-12.2-7.1-24.5-10.6-36.7c-1.6,0.4-3.2,0.9-4.8,1.3c6.1,15.4,10.2,31.4,12,47.8c1.6-0.2,3.3-0.4,4.9-0.7
				c-6.2-16.5-12.3-33-18.5-49.5c-1.5,0.6-3,1.3-4.6,1.9c7.5,16.5,12.5,34.1,14.7,52.1C241.4,459.6,246.4,459.6,246,456.5L246,456.5
				z"/>
		</g>
	</g>
	<g class="st25">
		<g>
			<path d="M263.1,444.7c1.7,16.6,6,32.6,12.9,47.8c1.3,2.9,5.7,0.4,4.3-2.5c-6.6-14.3-10.7-29.6-12.3-45.3
				C267.8,441.6,262.8,441.5,263.1,444.7L263.1,444.7z"/>
		</g>
	</g>
	<g class="st25">
		<g>
			<path d="M269.1,454.6c24.6-5.7,48.7-13.4,72.1-23c-1.1-0.8-2.1-1.6-3.2-2.4c-0.4,4.1-11,4.6-13.7,5.1c-4.8,0.9-9.6,1.9-14.5,2.8
				c-10,1.9-19.9,3.8-29.9,5.7c-2.7,0.5-2.2,5.1,0.7,4.9c15.1-1.2,30.2-2.4,45.4-3.5c14.9-1.1,30-1.6,44.7,1.5
				c3.1,0.7,4.5-4.2,1.3-4.8c-14.6-3.1-29.4-2.8-44.2-1.8c-15.8,1.1-31.5,2.4-47.2,3.7c0.2,1.6,0.4,3.3,0.7,4.9
				c13.2-2.5,26.3-5.1,39.5-7.6c6.9-1.3,21.3-1.3,22.1-10.9c0.1-1.5-1.7-3-3.2-2.4c-23.4,9.6-47.4,17.3-72.1,23
				C264.6,450.5,265.9,455.3,269.1,454.6L269.1,454.6z"/>
		</g>
	</g>
	<g class="st25">
		<g>
			<path d="M380.8,440.3c7.3,42.4,11.8,85.2,13.7,128.2c1.6-0.2,3.3-0.4,4.9-0.7c-11.7-34.9-17.2-71.4-16.5-108.2
				c-1.6,0.2-3.3,0.4-4.9,0.7c13.4,67.5,18.6,136.5,15.5,205.3c-0.1,3.2,4.9,3.2,5,0c3.1-69.2-2.2-138.7-15.7-206.6
				c-0.6-2.8-4.9-2.1-4.9,0.7c-0.7,37.2,4.9,74.2,16.7,109.5c0.9,2.6,5,2.3,4.9-0.7c-1.9-43.4-6.5-86.7-13.9-129.5
				C385,435.8,380.2,437.1,380.8,440.3L380.8,440.3z"/>
		</g>
	</g>
	<g class="st25">
		<g>
			<path d="M393.2,633.2c-14.3,3-28,7.9-41.1,14.5c-2.3,1.1-1.1,4.6,1.3,4.7c12.6,0.1,25-1.6,37.2-4.8c-0.8-1.4-1.6-2.8-2.4-4.2
				c-4.4,3.8-8.8,7.6-13.2,11.4c-2.4,2.1,1.1,5.6,3.5,3.5c4.4-3.8,8.8-7.6,13.2-11.4c2-1.7-0.1-4.8-2.4-4.2
				c-11.7,3.2-23.7,4.7-35.9,4.7c0.4,1.6,0.8,3.1,1.3,4.7c12.7-6.4,26-11,39.9-14C397.7,637.3,396.4,632.5,393.2,633.2L393.2,633.2z
				"/>
		</g>
	</g>
	<g class="st25">
		<g>
			<path d="M301.9,443.2c8.1-5,14.5-11.9,18.6-20.5c1.2-2.5-1.8-5-3.9-3c-4.9,4.5-8.4,9.7-10.9,15.8c-1.1,2.6,3.4,4.5,4.6,1.9
				c4.6-9.8,9.8-19.3,15.8-28.3c1.8-2.7-2.6-5.2-4.3-2.5c-5.9,9.1-11.2,18.5-15.8,28.3c1.5,0.6,3,1.3,4.6,1.9
				c2.2-5.3,5.5-9.7,9.6-13.6c-1.3-1-2.6-2-3.9-3c-3.8,7.9-9.3,14.2-16.8,18.8C296.7,440.6,299.2,444.9,301.9,443.2L301.9,443.2z"/>
		</g>
	</g>
	<g class="st25">
		<g>
			<path d="M349.3,431.1c-8.4-9.4-14.4-20.4-17.7-32.6c-0.7-2.6-5.2-2.2-4.9,0.7c0.7,7.8,2.7,15.1,6.2,22.1c1.2,2.5,4.4,0.9,4.7-1.3
				c1-8.1-0.8-15.9-5.2-22.7c-1.7-2.7-6.1-0.2-4.3,2.5c4,6.2,5.4,12.9,4.5,20.2c1.6-0.4,3.1-0.8,4.7-1.3c-3.1-6.2-4.9-12.7-5.5-19.6
				c-1.6,0.2-3.3,0.4-4.9,0.7c3.5,13,10,24.8,19,34.8C347.9,437,351.4,433.5,349.3,431.1L349.3,431.1z"/>
		</g>
	</g>
	<g class="st25">
		<g>
			<path d="M333.4,398.4c-1.2-24.9-2.4-49.8-3.6-74.7c-0.2-3.2-5.1-3.2-5,0c0.6,21.9,1.2,43.8,1.8,65.7c1.7,0,3.3,0,5,0
				c-1.8-34.4-3.6-68.7-5.5-103.1c-0.2-3.2-5-3.2-5,0c0,14,0.1,28,0.1,42c0,3.2,5,3.2,5,0c0-14-0.1-28-0.1-42c-1.7,0-3.3,0-5,0
				c1.8,34.4,3.6,68.7,5.5,103.1c0.2,3.2,5.1,3.2,5,0c-0.6-21.9-1.2-43.8-1.8-65.7c-1.7,0-3.3,0-5,0c1.2,24.9,2.4,49.8,3.6,74.7
				C328.6,401.6,333.6,401.6,333.4,398.4L333.4,398.4z"/>
		</g>
	</g>
	<g class="st25">
		<g>
			<path d="M241.4,397.9c5.9,29.9,9.6,60.1,11.1,90.5c0.2,3.2,5.2,3.2,5,0c-1.5-30.8-5.2-61.5-11.2-91.8
				C245.6,393.4,240.8,394.8,241.4,397.9L241.4,397.9z"/>
		</g>
	</g>
	<g class="st25">
		<g>
			<path d="M212.6,592.6c38.2,1,75.3-17.7,97.5-48.7c1.9-2.6-2.5-5.1-4.3-2.5c-21.2,29.6-56.8,47.2-93.2,46.3
				C209.4,587.6,209.4,592.6,212.6,592.6L212.6,592.6z"/>
		</g>
	</g>
	<g class="st25">
		<g>
			<path d="M265,670.1c-0.6,3.7-2.3,10.1,0.3,13.3c2.3,2.9,7.1,1.5,10.2,1.1c9.5-1.4,18.7-4.7,27.1-9.3
				c16.7-9.3,29.7-24.3,36.5-42.1c1.2-3-3.7-4.3-4.8-1.3c-5.6,14.5-15.7,27-28.6,35.7c-6.2,4.2-13,7.5-20.2,9.7
				c-3.4,1.1-7,1.9-10.5,2.4c-1.2,0.2-4.6,1.1-5.7,0.2c-0.8-0.7,0.5-7.6,0.6-8.4C270.3,668.3,265.5,666.9,265,670.1L265,670.1z"/>
		</g>
	</g>
	<g class="st25">
		<g>
			<path d="M326.7,542.8c18.4-8.9,32.5-24.4,40-43.4c1.2-3-3.7-4.3-4.8-1.3c-7,17.8-20.5,32.1-37.7,40.4
				C321.2,539.9,323.8,544.2,326.7,542.8L326.7,542.8z"/>
		</g>
	</g>
	<g class="st25">
		<g>
			<path d="M333,605c32.2,1.8,63.1-18.7,74.4-48.8c1.1-3-3.7-4.3-4.8-1.3c-10.6,28-39.8,46.7-69.6,45.1
				C329.8,599.8,329.8,604.8,333,605L333,605z"/>
		</g>
	</g>
	<g class="st25">
		<g>
			<path d="M997.2,54c-21.4-20.1-55.2-18.4-82.5-19c-34-0.8-68.1,0.4-101.7,6.2C755.4,51,698.5,75.8,659.9,121
				c-20,23.4-41,57.2-33.8,89.3c0.7,3.1,5.5,1.8,4.8-1.3c-6.5-28.7,12.1-59.5,29.6-80.9c16.8-20.6,37.9-37.4,61-50.4
				C775,47.5,837.4,39.7,897.9,39.8c17.2,0,34.5,0.3,51.7,1.8c15.8,1.4,32.2,4.8,44.1,16C996,59.7,999.6,56.2,997.2,54L997.2,54z"/>
		</g>
	</g>
	<g class="st25">
		<g>
			<path d="M627.4,161.6c-8.2,36.1,17.5,70.4,49.3,84.9c18.7,8.5,39.3,11.8,59.7,12.5c22.6,0.9,45.5-0.8,67.9-3.7
				c26-3.4,51.6-8.9,76.7-16.4c3.1-0.9,1.8-5.7-1.3-4.8c-41.4,12.4-84.5,19.4-127.7,20c-37.5,0.6-79.3-5.4-104.6-36
				c-12.6-15.3-19.7-35.5-15.2-55.2C633,159.8,628.1,158.5,627.4,161.6L627.4,161.6z"/>
		</g>
	</g>
	<g class="st25">
		<g>
			<path d="M979.4,50.4c10.2,37.2,20.9,76.4,11.6,115c-4.1,17.2-12.2,33.3-24.8,45.7c-12.6,12.3-28.6,20.7-45.2,26.1
				c-22,7.1-45.2,9.2-68.1,11c-3.2,0.2-3.2,5.2,0,5c38.7-3,80-7.6,111-33.3c29.3-24.3,38.1-63.4,35.1-99.9c-2-24.2-8.4-47.7-14.7-71
				C983.4,45.9,978.5,47.3,979.4,50.4L979.4,50.4z"/>
		</g>
	</g>
	<g class="st25">
		<g>
			<path d="M661.6,142.1c-10.6-15-8.4-33.6-4.8-50.6c3-13.9,5.7-29.6,17.4-39.1c-1.3-0.2-2.6-0.3-3.9-0.5
				c7.4,15.8,13.8,32,19.5,48.5c1,3,5.9,1.7,4.8-1.3c-5.8-16.9-12.4-33.5-20-49.7c-0.7-1.6-2.8-1.4-3.9-0.5
				c-12.8,10.3-15.9,27.9-19.1,43.1c-3.6,17.7-5.2,37.1,5.7,52.6C659.1,147.3,663.4,144.8,661.6,142.1L661.6,142.1z"/>
		</g>
	</g>
	<g class="st25">
		<g>
			<path d="M944.4,44.7c-2.3-13.6-5.9-29-18.9-36.3c-1.2-0.7-3.4-0.2-3.7,1.5c-1.6,11.3-2.1,22.7-1.4,34.1c0.2,3.2,5.2,3.2,5,0
				c-0.7-11-0.3-21.9,1.2-32.8c-1.2,0.5-2.4,1-3.7,1.5c11.7,6.6,14.5,21.1,16.6,33.3C940.1,49.2,944.9,47.9,944.4,44.7L944.4,44.7z"
				/>
		</g>
	</g>
	<g class="st25">
		<g>
			<path d="M745.4,137.9c0.3-2.3-0.4-3.7-1.9-5.3c-1.9-1.9-4.5,0.1-4.2,2.4c2.1,14.3,5.4,28.4,10,42.1c1,3,5.8,1.7,4.8-1.3
				c-4.5-13.7-7.9-27.8-10-42.1c-1.4,0.8-2.8,1.6-4.2,2.4c0.2,0.6,0.3,1.2,0.5,1.7C740,141.1,745,141.1,745.4,137.9L745.4,137.9z"/>
		</g>
	</g>
	<g class="st25">
		<g>
			<path d="M853.9,106.9c3.4,16.2,6.8,32.5,10.2,48.7c0.7,3.1,5.5,1.8,4.8-1.3c-3.4-16.2-6.8-32.5-10.2-48.7
				C858.1,102.5,853.3,103.8,853.9,106.9L853.9,106.9z"/>
		</g>
	</g>
	<g class="st25">
		<g>
			<path d="M791.1,162.5c12.8-4.6,24.9-10.7,36.1-18.3c2-1.4,1.3-4.6-1.3-4.7c-1.2,0-2.4,0-3.7-0.1c-3.2-0.1-3.2,4.9,0,5
				c1.2,0,2.4,0,3.7,0.1c-0.4-1.6-0.8-3.1-1.3-4.7c-10.9,7.4-22.6,13.4-34.9,17.8C786.7,158.7,788,163.6,791.1,162.5L791.1,162.5z"
				/>
		</g>
	</g>
	<g class="st25">
		<g>
			<path d="M803.5,152c3.6,8.6,5.6,17.5,5.9,26.9c0.1,3.2,5.1,3.2,5,0c-0.3-9.8-2.3-19.2-6-28.2C807.1,147.8,802.3,149.1,803.5,152
				L803.5,152z"/>
		</g>
	</g>
	<g class="st25">
		<g>
			<path d="M705.4,250.1c-39.4,27.6-71.3,65.1-91.9,108.7c-1.4,2.9,2.9,5.4,4.3,2.5c20.2-42.7,51.3-79.8,90.1-106.9
				C710.6,252.5,708.1,248.2,705.4,250.1L705.4,250.1z"/>
		</g>
	</g>
	<g class="st25">
		<g>
			<path d="M963.8,226.8c11.3,17.9,25.2,35.9,32.3,56c7.2,20.5,5.1,42.7-0.1,63.5c-0.8,3.1,4,4.5,4.8,1.3c5.3-21,7.5-43.5,0.7-64.4
				c-6.9-21.3-21.5-40.2-33.3-58.9C966.4,221.6,962,224.1,963.8,226.8L963.8,226.8z"/>
		</g>
	</g>
	<g class="st25">
		<g>
			<path d="M645.9,268.3c-13.2,7.2-25,16.9-34.4,28.8c-8.6,10.9-18.1,25.1-16.7,39.7c1.1,12.2,10.6,22.5,23.4,21.1
				c14.5-1.6,28.3-13.8,37.7-24.1c2.2-2.4-1.4-5.9-3.5-3.5c-8.3,9-19.4,19-31.6,22.1c-15.7,4-23.3-11.7-20.2-25
				c2.8-12.2,11.4-23.7,19.7-32.8c8.1-8.9,17.7-16.2,28.2-21.9C651.2,271.1,648.7,266.8,645.9,268.3L645.9,268.3z"/>
		</g>
	</g>
	<g class="st25">
		<g>
			<path d="M980.3,237.7c13.1,11.4,24.5,24.6,33.5,39.4c2.2,3.6,4.2,7.2,6.1,10.9c1,2,2,4,2.9,6c0.5,1,0.9,2,1.4,3.1
				c0.8,0.5,0.7,0.6-0.4,0.6c-1.2,0.9-5,0.7-6.5,0.9c-2.5,0.4-5,0.7-7.5,1.1c-5,0.7-9.9,1.4-14.9,2.2c-3.2,0.5-1.8,5.3,1.3,4.8
				c5.6-0.8,11.2-1.6,16.8-2.4c3.1-0.5,6.2-0.9,9.3-1.4c1.8-0.3,4.1-0.2,5.6-1.2c2.5-1.6,1.8-4,0.9-6.3c-2-4.9-4.4-9.6-6.9-14.3
				c-9.7-17.8-22.7-33.7-38-47C981.4,232,977.9,235.6,980.3,237.7L980.3,237.7z"/>
		</g>
	</g>
	<g class="st25">
		<g>
			<path d="M1008,312.5c-4.3,0.8-7.2,3.6-8.6,7.7c-0.8,2.4,2.5,4.2,4.2,2.4c22.4-22.9,46.8-43.6,73.1-61.9c2.6-1.8,0.1-6.2-2.5-4.3
				c-26.6,18.5-51.4,39.5-74.1,62.7c1.4,0.8,2.8,1.6,4.2,2.4c0.8-2.5,2.6-3.8,5.1-4.2C1012.5,316.7,1011.2,311.9,1008,312.5
				L1008,312.5z"/>
		</g>
	</g>
	<g class="st25">
		<g>
			<path d="M1069.2,263.4c2.1,3.8,4.2,7.6,6.4,11.3c1.5,2.7,6.8,9.2,5.4,12.2c-1.3,2.9,3,5.5,4.3,2.5c1.9-4.3-0.1-7.7-2.3-11.5
				c-3.2-5.7-6.4-11.3-9.5-17C1071.9,258,1067.6,260.5,1069.2,263.4L1069.2,263.4z"/>
		</g>
	</g>
	<g class="st25">
		<g>
			<path d="M1019.5,313.6c12.6-9.5,23-21.8,36.6-30c6.8-4.1,14.7-7.1,22.8-7.5c6.6-0.3,20.4,1.7,21.5,10.3c1.1-0.8,2.1-1.6,3.2-2.4
				c-8.6-1.2-16.2-5.4-24.5-7.3c-7.3-1.7-14.9-2-22.4-1.1c-14.5,1.8-28,8.2-38.4,18.5c-2.3,2.3,1.2,5.8,3.5,3.5
				c10.2-10,23.6-16.2,37.9-17.3c6.8-0.5,13.6,0,20.2,1.8c7.5,2.1,14.5,5.7,22.3,6.8c1.4,0.2,3.4-0.6,3.2-2.4
				c-1-7.8-8.1-12.1-15.2-14.1c-8.5-2.4-17.8-1.2-26,1.8c-18.9,6.9-31.6,23.3-47.3,35.1C1014.4,311.2,1016.9,315.5,1019.5,313.6
				L1019.5,313.6z"/>
		</g>
	</g>
	<g class="st25">
		<g>
			<path d="M1009.4,362.4c48.3-49.4,97.2-99.2,156.5-135.5c2.7-1.7,0.2-6-2.5-4.3c-59.6,36.6-108.9,86.7-157.5,136.3
				C1003.6,361.1,1007.2,364.7,1009.4,362.4L1009.4,362.4z"/>
		</g>
	</g>
	<g class="st25">
		<g>
			<path d="M1150.2,231.8c14.2,14.4,21.6,33.8,33.2,50.1c11.2,15.6,24.6,29.4,39.8,41.1c0.6-1.5,1.3-3,1.9-4.6
				c-1.3-0.2-2.7-0.4-4-0.5c-3.1-0.4-4.5,4.4-1.3,4.8c1.3,0.2,2.7,0.4,4,0.5c2.9,0.4,4.2-2.8,1.9-4.6
				c-15.8-12.2-29.7-26.9-40.9-43.5c-10.5-15.6-17.7-33.4-31.1-46.9C1151.5,226,1147.9,229.5,1150.2,231.8L1150.2,231.8z"/>
		</g>
	</g>
	<g class="st25">
		<g>
			<path d="M1218.5,323.9c-10.7,19.4-23.8,37.4-39,53.5c-2.2,2.3,1.3,5.9,3.5,3.5c15.5-16.4,28.9-34.7,39.8-54.5
				C1224.3,323.6,1220,321.1,1218.5,323.9L1218.5,323.9z"/>
		</g>
	</g>
	<g class="st25">
		<g>
			<path d="M743.4,107.9c-12.3,2.8-24.3,7.1-35.5,12.9c-8.8,4.5-20.6,9.8-22.7,20.5c-1.9,9.7,2.2,20.6,5.4,29.7
				c3.3,9.4,8.2,18.4,16.7,24c8.8,5.8,19.8,6.6,30,5.7c10-0.9,20.6-2.9,29.8-7.1c9.8-4.5,15.7-12.5,17.4-23.1
				c1.8-11,2.4-24.5-1-35.3c-3.7-11.8-13.4-20.3-22.7-27.8c-8.7-7-20.2-12.7-30.9-6.1c-2.7,1.7-0.2,6,2.5,4.3
				c10-6.2,20.5,1.6,28.1,8c7,5.9,14.3,12.4,17.6,21.2c3.5,9.3,2.8,20.4,2.1,30.1c-0.8,10.4-4.6,18.8-14.2,23.6
				c-7.8,3.9-17.2,5.6-25.8,6.7c-8.9,1.2-18.7,1.3-27-2.8c-8.2-4-13.3-11.7-16.6-20c-3.2-8-6.7-17.5-6.7-26.1
				c-0.1-12.1,12.9-17.4,22.3-22.1c10.4-5.2,21.4-9,32.8-11.6C747.8,112,746.5,107.2,743.4,107.9L743.4,107.9z"/>
		</g>
	</g>
	<g class="st25">
		<g>
			<path d="M774.6,126.7c2.2-8,11-11.1,18.3-12.9c9.6-2.4,19.5-3,29.4-2.4c3.2,0.2,3.2-4.8,0-5c-11.7-0.7-24,0.2-35.2,3.9
				c-7.7,2.5-15,6.9-17.3,15.1C768.9,128.5,773.7,129.8,774.6,126.7L774.6,126.7z"/>
		</g>
	</g>
	<g class="st25">
		<g>
			<path d="M850.2,68.9c-25.2-2.6-29.9,32.6-28.8,50.6c1.3,22.2,13.6,41.1,35.3,47.8c21.2,6.5,43.6-1.3,59.4-16
				c8.2-7.6,15.9-17.6,18.6-28.6c2.7-11.1-0.6-22.6-5.3-32.7c-5-10.7-13.4-20.2-25-23.6c-11.4-3.3-23.8-0.4-32.9,7.1
				c-2.5,2.1,1.1,5.6,3.5,3.5c7.5-6.2,17.8-8.5,27.3-6c9.4,2.5,16.4,9.7,21,18c5,9,8.9,20.4,7,30.7c-1.8,9.4-7.9,17.9-14.4,24.7
				c-12.8,13.4-30.9,22.1-49.6,19.7c-19.1-2.5-34.1-15.5-38.5-34.4c-3.8-16.2-2.7-58.5,22.4-55.9C853.4,74.2,853.3,69.2,850.2,68.9
				L850.2,68.9z"/>
		</g>
	</g>
	<g class="st25">
		<g>
			<path d="M1047.1,99.2c4.8-3.6,9.7-7.1,14.5-10.7c1.2-0.9,13.5-9,13.4-9.5c0.8,3.1,5.6,1.8,4.8-1.3c-1.5-6.1-8.4-2.5-11.6-0.2
				c-7.9,5.8-15.7,11.6-23.6,17.4C1042,96.8,1044.5,101.1,1047.1,99.2L1047.1,99.2z"/>
		</g>
	</g>
	<g class="st25">
		<g>
			<path d="M1037.4,108c15.1,4.6,30.2,9.2,45.2,13.8c7.5,2.3,15.1,4.6,22.6,6.9c6.1,1.9,11.9,3.8,18.4,2.9c3.2-0.4,1.8-5.3-1.3-4.8
				c-7.1,1-14.8-2.6-21.4-4.7c-6.9-2.1-13.8-4.2-20.7-6.3c-13.8-4.2-27.6-8.5-41.5-12.7C1035.6,102.3,1034.3,107.1,1037.4,108
				L1037.4,108z"/>
		</g>
	</g>
	<g class="st25">
		<g>
			<path d="M1083.8,67.5C1133.6,16,1209.5-3,1277.7,19.2c16,5.2,33.8,12.3,46.4,23.9c14.4,13.3,14.6,33.3,4.8,49.5
				c-9.1,14.9-24.4,25.7-39,34.8c-14.4,9-29.8,16.2-45.9,21.7c-36.8,12.5-76.6,15.4-114.8,7.9c-3.1-0.6-4.5,4.2-1.3,4.8
				c35.8,7,73,5.3,108.1-4.9c17.5-5.1,34.4-12.2,50.1-21.3c15.5-8.9,31.4-19.7,42.5-33.9c10.3-13.1,16.1-31.3,9.5-47.4
				c-6.7-16.2-23.9-25.3-39.1-32.1c-34.9-15.8-74.2-21-112-14.7c-40.5,6.8-78.3,27-106.8,56.5C1078,66.3,1081.6,69.8,1083.8,67.5
				L1083.8,67.5z"/>
		</g>
	</g>
	<g class="st25">
		<g>
			<path d="M1162,74.5c0-4.6,0-9.2,0-13.8c0-1.9-0.2-4.1,0-5.9c0.4-3.2,0.4-2.6,3.4-1.6c8.5,2.9,16.9,5.8,25.4,8.7
				c3.1,1,4.4-3.8,1.3-4.8c-6-2-11.9-4.1-17.9-6.1c-3.6-1.2-10.4-5.2-14.3-3.7c-3.1,1.2-2.9,4.7-3,7.5c0,6.6,0,13.2,0,19.8
				C1157,77.7,1162,77.7,1162,74.5L1162,74.5z"/>
		</g>
	</g>
	<g class="st25">
		<g>
			<path d="M1158.9,76.6c-10.6,9-14.4,24.3-10.4,37.4c4.5,14.9,18.4,22.7,32.9,25.3c16.3,3,36.4,4,51.8-3.1
				c7.3-3.3,13.8-8.8,17.3-16.1c4.1-8.4,4.3-18.4,4.4-27.6c0.1-10.8-0.3-22.3-3.2-32.8c-2.3-8.4-7.8-15.5-16.8-16.4
				c-3.2-0.3-3.2,4.7,0,5c9.1,0.9,11.9,10.8,13.2,18.3c1.3,8.2,1.9,16.6,1.8,24.9c0,7.8-0.1,16-2.7,23.4
				c-2.6,7.4-8.3,12.8-15.2,16.2c-13.1,6.4-29.8,5.6-44,4c-12.8-1.5-27-6-33.1-18.5c-6-12.3-2.9-27.9,7.5-36.7
				C1164.9,78,1161.4,74.5,1158.9,76.6L1158.9,76.6z"/>
		</g>
	</g>
	<g class="st25">
		<g>
			<path d="M1191.2,57c7.5-0.1,15,0.3,22.5,1.6c3.4,0.6,6.7,1.3,10,2.2c1.1,0.3,13.6,3.5,10.7,6.4c1.2,0,2.4,0,3.5,0
				c-1.5-1.4-2.6-2.8-3.5-4.7c-1.4-2.9-5.8-0.3-4.3,2.5c1.1,2.3,2.4,4,4.3,5.7c1,0.9,2.6,1,3.5,0c7.5-7.8-5.6-12.6-11.2-14.2
				c-11.6-3.3-23.6-4.8-35.6-4.6C1188,52.1,1188,57.1,1191.2,57L1191.2,57z"/>
		</g>
	</g>
	<g class="st25">
		<g>
			<path d="M1220.9,129.2c-10.9-2.9-20-9.5-26.1-19c-1.7-2.7-6.1-0.2-4.3,2.5c6.8,10.6,17,18,29.1,21.3
				C1222.7,134.9,1224,130,1220.9,129.2L1220.9,129.2z"/>
		</g>
	</g>
	<g class="st25">
		<g>
			<path d="M1240.5,122.1c-6-4.5-10.7-10.3-14-17.1c-1.4-2.9-5.7-0.4-4.3,2.5c3.7,7.6,9.1,13.9,15.8,18.9
				C1240.5,128.3,1243,124,1240.5,122.1L1240.5,122.1z"/>
		</g>
	</g>
	<g class="st25">
		<g>
			<path d="M1243.4,7.7c-19.4,24.2-37.2,49.6-53.1,76.3c-8,13.4-15.4,27-22.4,40.9c-3.5,6.9-6.9,13.9-10.1,21
				c-2.9,6.4-5.3,15.4-11.1,19.8c-2.6,1.9-0.1,6.2,2.5,4.3c5.4-4,7.7-9.9,10.3-15.8c3.2-7.1,6.5-14.1,9.9-21.1
				c7-14.2,14.5-28.2,22.5-41.9c16.3-28,34.8-54.7,55.1-79.9C1249,8.8,1245.4,5.2,1243.4,7.7L1243.4,7.7z"/>
		</g>
	</g>
	<g class="st25">
		<g>
			<path d="M1244.8,19.8c-17,29.3-34,58.5-51.1,87.8c-8.3,14.2-16.7,28.4-24.8,42.7c-2.1,3.7-6.9,10.8-4.7,15.1
				c1.6,3.1,6,2.3,6.5-1.1c0.2-1.1-0.1-2.2-1.1-2.8c-0.2-0.1-0.3-0.2-0.5-0.3c-2.8-1.7-5.3,2.7-2.5,4.3c0.2,0.1,0.3,0.2,0.5,0.3
				c-0.4-0.9-0.8-1.9-1.1-2.8c1.9,0.6,3,0.3,3.1-1.2c0.2-0.8,0.5-1.6,0.8-2.3c0.5-1.3,1.2-2.6,1.8-3.9c1.5-2.9,3.3-5.7,4.9-8.6
				c3.5-6,7-12.1,10.5-18.1c6.8-11.8,13.7-23.5,20.5-35.3c13.8-23.8,27.7-47.6,41.5-71.5C1250.7,19.6,1246.4,17.1,1244.8,19.8
				L1244.8,19.8z"/>
		</g>
	</g>
	<g class="st25">
		<g>
			<path d="M1167.5,144.1c24.9-41.1,49.8-82.2,74.7-123.3c1.7-2.8-2.5-5.1-4.3-2.5c-29,42.2-58.3,85.4-71.7,135.5c1.6,0,3.2,0,4.8,0
				c-0.3-1.1-0.7-2.2-1-3.3c-1-3.1-5.8-1.8-4.8,1.3c0.3,1.1,0.7,2.2,1,3.3c0.7,2.3,4.2,2.4,4.8,0c13.2-49.6,42.4-92.5,71.2-134.3
				c-1.4-0.8-2.9-1.7-4.3-2.5c-24.9,41.1-49.8,82.2-74.7,123.3C1161.5,144.3,1165.8,146.8,1167.5,144.1L1167.5,144.1z"/>
		</g>
	</g>
	<g class="st25">
		<g>
			<path d="M1218.4,65.4c10.4-7.9,17.4-19,19.6-31.9c0.4-2.6-3.1-4.6-4.6-1.9c-23.1,42.6-46.2,85.1-69.3,127.7
				c1.5,0.6,3,1.3,4.6,1.9c5.2-17.3,16.8-31.2,27.6-45.3c11.4-14.9,20.7-30.6,26.8-48.4c0.9-2.7-3.2-4.4-4.6-1.9
				c-17.3,31.1-35.8,61.6-55.4,91.3c-1.8,2.7,2.5,5.2,4.3,2.5c19.6-29.7,38.1-60.2,55.4-91.3c-1.5-0.6-3-1.3-4.6-1.9
				c-6.5,18.6-16.7,34.7-28.6,50.2c-10.4,13.4-20.9,27-25.8,43.5c-0.8,2.7,3.2,4.4,4.6,1.9c23.1-42.6,46.2-85.1,69.3-127.7
				c-1.5-0.6-3-1.3-4.6-1.9c-1.9,11.5-7.9,21.8-17.3,29C1213.4,63,1215.9,67.3,1218.4,65.4L1218.4,65.4z"/>
		</g>
	</g>
</g>
</svg>
